<?xml version="1.0" encoding="utf-8"?>
<!-- Generator: Adobe Illustrator 22.1.0, SVG Export Plug-In . SVG Version: 6.00 Build 0)  -->
<svg version="1.1" id="Layer_1" xmlns="http://www.w3.org/2000/svg" xmlns:xlink="http://www.w3.org/1999/xlink" x="0px" y="0px"
	 viewBox="0 0 40 40" style="enable-background:new 0 0 40 40;" xml:space="preserve">
<style type="text/css">
	.st0{fill:#E1E4F4;}
	.st1{fill:#F97A7A;}
	.st2{fill:#57617F;}
	.st3{fill:#FFFFFF;}
	.st4{fill:#92DDDA;}
	.st5{fill:#EF3F54;}
</style>
<path class="st0" d="M33.8,32L14,37.3c-2.6,0.7-5.4-0.9-6.1-3.5L2.6,14.1C1.9,11.4,3.5,8.7,6.2,8l19.7-5.3C28.6,2,31.3,3.5,32,6.2
	l5.3,19.7C38,28.6,36.4,31.3,33.8,32z"/>
<path class="st1" d="M33.6,10.8c-0.3-0.6-0.8-1.1-1.4-1.5L17.5,0.8c-1.1-0.6-2.5,0-2.6,1.3l-2.1,15c-0.2,1.4,0.5,2.7,1.6,3.4l1.7,1
	l-0.5,3.6l3.4-2l5.8,3.4l5.7-13.9L33.6,10.8z"/>
<path class="st2" d="M15.5,22.3l-1.9,3.6l2.7-0.7l2.5-1.4L15.5,22.3z"/>
<path class="st2" d="M30.6,29.2L28.9,30l0.9-1.2L30.6,29.2z"/>
<path class="st2" d="M33.6,10.8l-3.2,1.8l-5.7,13.9l4.4,2.6c1.1,0.6,2.5,0,2.6-1.3l2.1-15.1C34,12.1,33.9,11.4,33.6,10.8z"/>
<path class="st1" d="M15.8,0.7L14,1.5l5.3,4.5L15.8,0.7z"/>
<path class="st3" d="M15.6,1.5l14.8,8.5c1.2,0.7,1.8,2.3,1.6,3.7l-2,14.8c-0.2,1.2-1.6,1.9-2.6,1.3l-10.2-6l-3.4,2l0.5-3.6l-1.7-1
	c-1.2-0.7-1.9-2-1.6-3.4l2.1-15C13.1,1.6,14.5,0.9,15.6,1.5z"/>
<path class="st4" d="M22.3,22.8c-0.8,0-1.7-0.2-2.4-0.7c-3.5-2-5.4-5.9-4.8-10c0.2-1.6,1.3-3.1,2.8-3.8c1.5-0.7,3.3-0.7,4.7,0.2
	c3.4,1.9,5.3,5.7,4.7,9.6l-0.1,0.4c-0.2,1.6-1.2,3-2.7,3.7C23.7,22.7,23,22.8,22.3,22.8z M20,8.4c-0.7,0-1.3,0.2-2,0.5
	c-1.4,0.7-2.3,1.9-2.5,3.4c-0.6,3.8,1.2,7.5,4.6,9.4c1.3,0.7,2.8,0.8,4.1,0.1c1.3-0.7,2.2-1.9,2.4-3.3l0.1-0.4
	c0.5-3.7-1.2-7.3-4.4-9.1C21.5,8.6,20.8,8.4,20,8.4z"/>
<path class="st5" d="M22.1,14.4l-1.8-1l-0.8,5.8l1.8,1.1L22.1,14.4z"/>
<path class="st5" d="M21.3,13.2c-0.7-0.4-1-1.1-0.9-1.8c0.1-0.6,0.8-1,1.3-0.7c0.6,0.4,1,1.1,0.9,1.8l0,0.1
	C22.5,13.2,21.8,13.6,21.3,13.2z"/>
</svg>
