
<svg width="344" height="325" viewBox="0 0 344 325" fill="none" xmlns="http://www.w3.org/2000/svg">
<path opacity="0.12" d="M316.908 322.615C325.853 321.436 345.218 316.914 343.94 304.824C343.252 298.336 305.113 293.225 292.138 293.126C280.342 293.028 268.547 293.814 256.751 292.733C242.892 291.455 229.425 289.784 215.565 291.455C201.116 293.126 186.863 296.075 172.315 296.468C120.513 297.943 79.0322 287.917 13.8619 294.994C-17.1996 298.434 22.6103 312.491 34.6024 315.833C67.5315 324.974 86.2078 326.842 143.121 323.008C182.243 320.256 305.015 324.188 316.908 322.615Z" fill="#001177"/>
<path d="M34.9955 266.587C34.9955 266.587 18.875 305.709 32.6364 298.336L52.8854 267.865C52.8854 267.865 41.0899 261.082 34.9955 266.587Z" fill="#E7DCC3"/>
<path d="M295.677 262.655C295.677 262.655 305.801 303.743 293.318 294.404L277.885 261.279C277.885 261.377 290.467 256.364 295.677 262.655Z" fill="#AFB7BA"/>
<path d="M223.232 261.77C223.232 261.77 233.357 302.858 220.873 293.52L205.342 260.492C205.342 260.492 218.023 255.479 223.232 261.77Z" fill="#AFB7BA"/>
<path d="M127.196 268.553C127.196 268.553 110.682 313.572 124.444 305.02L144.988 269.929C144.988 269.929 133.291 262.262 127.196 268.553Z" fill="#E7DCC3"/>
<path d="M306.292 222.943C306.292 222.943 311.207 192.668 292.334 184.51C292.334 184.51 278.573 180.086 274.15 178.022C263.337 173.009 244.464 160.919 237.289 147.845C235.224 144.012 234.438 139.687 231.587 135.951C225.002 127.203 215.467 125.63 205.048 124.844C176.149 122.681 146.955 121.404 117.859 121.01C90.4344 120.716 62.8132 121.895 35.4869 125.335C18.1868 127.498 3.14755 133.592 4.03222 134.772L119.235 269.634C132.898 269.142 143.711 271.01 157.374 270.519C183.521 269.536 212.42 267.766 238.566 266.783C255.965 266.292 274.543 267.177 291.745 264.719C301.378 263.343 305.211 254.201 304.72 245.06L306.292 222.943Z" fill="#F97A7A"/>
<path d="M211.24 127.006C213.009 127.006 214.778 127.596 216.351 128.481C217.924 129.365 219.398 130.545 220.578 131.823C223.035 134.477 224.903 137.622 226.377 140.866C227.852 144.11 228.835 147.55 229.719 150.991C230.604 154.431 231.39 157.871 232.177 161.213C233.75 168.094 235.224 174.975 236.698 181.856C238.173 188.736 239.549 195.617 240.827 202.498L239.647 201.515C243.874 201.81 247.904 202.399 251.934 203.087C255.964 203.776 259.995 204.66 263.926 205.741C267.858 206.823 271.79 208.002 275.624 209.378L278.474 210.361C279.457 210.755 280.44 211.148 281.325 211.541C283.192 212.426 285.06 213.507 286.731 214.686C288.402 215.964 289.975 217.242 291.449 218.815C292.825 220.388 294.103 222.059 295.185 223.828C297.347 227.465 298.821 231.397 299.706 235.427C301.475 243.487 301.279 251.941 299.706 259.903C300.198 251.744 300.099 243.585 298.133 235.82C297.15 231.888 295.676 228.153 293.612 224.811C291.548 221.469 288.795 218.52 285.65 216.161C284.077 214.981 282.308 213.998 280.538 213.212C279.654 212.819 278.769 212.426 277.786 212.032L274.936 210.951C271.102 209.575 267.268 208.297 263.337 207.314C259.405 206.233 255.473 205.348 251.443 204.758C247.511 204.169 243.383 203.677 239.451 203.972L238.271 204.07V202.989L234.241 182.347C232.865 175.466 231.489 168.586 230.014 161.705C229.326 158.264 228.54 154.824 227.753 151.384C226.967 147.943 226.082 144.601 224.706 141.456C223.33 138.31 221.659 135.263 219.398 132.708C217.432 130.152 214.68 127.891 211.24 127.006Z" fill="#F75C68"/>
<path d="M243.776 237.786L230.899 243.291C230.899 243.291 236.896 255.676 239.255 262.753C239.255 262.753 242.105 265.014 250.067 259.903C257.439 255.184 268.645 259.215 264.91 256.069C263.73 256.167 260.487 250.368 259.209 250.466C249.084 253.513 243.776 237.786 243.776 237.786Z" fill="#F9C1A7"/>
<path d="M253.114 247.812C254.49 246.927 258.127 249.975 268.251 249.778C270.905 249.68 276.312 249.876 283.881 248.893C287.026 248.5 291.154 253.022 286.829 254.889L243.186 272.583C243.186 272.583 235.912 267.668 236.797 256.56C242.695 257.937 247.806 255.774 252.721 252.432C252.721 252.334 251.738 248.697 253.114 247.812Z" fill="#2B2E3A"/>
<path d="M138.501 222.845L200.133 211.344C200.133 211.344 199.936 212.72 202 213.015C202.492 213.114 204.654 212.229 204.654 212.229C211.535 231.003 226.968 239.064 232.079 255.971C230.998 256.56 249.379 247.419 251.64 247.517C242.793 229.922 225.69 190.899 220.087 187.95C209.471 182.249 134.274 186.77 134.274 186.77L113.534 186.967L120.022 200.237L134.373 215.276L138.501 222.845Z" fill="#31374C"/>
<path d="M179.294 275.335H165.336C165.336 275.335 165.926 288.998 165.434 296.567C165.434 296.567 167.106 299.712 176.542 298.238C185.192 296.763 193.842 304.922 191.68 300.597C190.598 300.204 189.812 293.618 188.632 293.225C178.016 291.848 179.294 275.335 179.294 275.335Z" fill="#F9C1A7"/>
<path d="M183.717 288.212C185.29 287.917 187.551 292.144 196.889 295.977C199.346 296.96 207.308 299.712 214.582 301.875C217.629 302.76 219.694 308.559 214.975 308.559L164.844 307.085C164.844 307.085 160.028 299.712 165.336 289.785C170.251 293.323 175.755 293.323 181.653 292.242C181.555 292.242 182.145 288.507 183.717 288.212Z" fill="#2B2E3A"/>
<path d="M122.676 225.696L160.52 232.478C160.52 232.478 161.208 234.64 161.798 235.034C162.289 235.329 163.96 235.23 163.96 235.23C161.503 244.077 161.11 267.275 163.96 289.195C171.529 291.849 182.44 287.425 184.701 287.425C179.098 269.634 198.954 225.597 189.615 216.062C181.457 207.609 146.857 194.929 131.228 193.848L120.907 185.492L104.196 202.989L118.548 218.028L122.676 225.696Z" fill="#57617F"/>
<path d="M84.9304 118.553L88.4691 113.835C88.4691 113.835 96.2345 117.472 99.3799 119.044C102.624 120.715 105.376 122.19 107.44 121.6L110.389 124.352L103.803 130.84L87.9776 122.78L85.8151 120.814L84.9304 118.553Z" fill="#F9C1A7"/>
<path d="M99.3803 121.01C95.8417 119.831 91.1235 115.899 88.4695 113.835L101.543 92.7012L116.287 106.069L108.62 117.57L107.342 121.502C107.441 121.6 102.821 122.19 99.3803 121.01Z" fill="#DC918B"/>
<path d="M120.021 155.316C125.231 162.688 130.539 168.979 136.338 172.812L144.104 157.871L126.214 140.964L120.021 155.316Z" fill="#FAC2A8"/>
<path d="M109.701 121.305C109.701 121.305 115.894 123.566 118.351 125.139C126.313 138.9 122.873 150.991 128.771 171.142C130.147 176.056 139.878 186.574 139.878 186.574C139.878 186.574 107.244 190.604 103.509 215.964C102.034 216.259 97.8074 213.409 96.5296 212.819C89.2557 209.575 91.4182 201.22 84.6358 196.993C74.2164 190.506 73.9215 162.885 72.0539 152.072C70.1863 141.358 75.6908 121.994 75.6908 121.994L83.2596 118.357L106.457 131.037L109.701 121.305Z" fill="#EF3F54"/>
<path d="M118.35 125.139C118.35 125.139 125.919 129.759 131.129 145.978C127.688 147.256 124.15 155.807 122.774 161.017L111.371 151.187L118.35 125.139Z" fill="#EF3F54"/>
<path d="M132.407 127.301C135.651 139.195 145.677 157.478 146.267 162.786C146.66 166.62 144.596 172.222 143.416 173.894C142.924 174.582 137.322 174.68 134.864 171.534C134.373 170.846 132.898 167.701 132.112 166.915C127.984 162.884 125.33 146.174 122.479 135.165C119.825 128.874 129.655 120.814 132.407 127.301Z" fill="#FAC2A8"/>
<path d="M107.637 126.22C111.274 129.071 115.5 133.985 115.5 133.985C115.5 133.985 114.321 127.596 113.534 124.058C112.65 121.895 108.62 117.668 108.62 117.668L107.342 121.6L107.833 122.092L107.637 126.22Z" fill="#BD1A3B"/>
<path d="M107.833 122.583L104.786 129.071L92.9903 122.78L90.1397 125.827L106.752 135.46L109.996 126.417L107.833 122.583Z" fill="#BD1A3B"/>
<path d="M86.4042 114.916C86.4042 114.916 91.2207 121.502 97.315 126.22C96.5287 127.989 89.1565 132.806 89.1565 132.806L80.8996 119.536L86.4042 114.916Z" fill="#BD1A3B"/>
<path d="M70.0872 161.607C70.0872 161.607 74.9038 178.12 83.3572 188.147C83.3572 188.147 93.9732 174.483 91.0243 173.107L86.0112 156.888C86.0112 156.987 73.4293 152.367 70.0872 161.607Z" fill="#F9C1A7"/>
<path d="M75.6893 122.091C75.6893 122.091 80.8007 126.613 82.0785 129.07C85.0274 134.477 84.7325 136.049 84.5359 141.947C84.5359 143.618 86.895 157.085 88.4677 157.38C82.0785 157.969 73.5268 158.756 68.1205 162.491C65.8597 151.777 64.4835 143.913 66.3511 133.887C67.8256 126.318 75.6893 122.091 75.6893 122.091Z" fill="#EF3F54"/>
<path d="M75.5913 173.992C77.0658 179.005 83.1601 188.638 84.9295 189.916C90.1392 193.553 111.174 190.407 125.821 187.065C125.821 187.065 124.248 176.744 127.983 176.056C127.983 176.056 116.286 179.988 105.178 176.941C102.23 176.154 96.4301 172.812 90.9255 173.107C91.0238 173.206 74.1169 169.175 75.5913 173.992Z" fill="#F9C1A7"/>
<path d="M125.919 187.065C129.851 190.702 137.42 183.723 137.715 183.821C137.715 183.821 141.45 184.116 142.433 184.018C143.416 185.001 144.694 185.787 146.365 186.868C148.527 188.343 149.903 186.672 148.822 185.591C148.331 185.099 147.348 183.92 147.348 183.92C147.348 183.92 150.886 185.689 151.968 183.723C152.656 182.445 150.591 181.757 149.215 179.005C150.395 179.496 151.574 180.578 153.344 179.988C154.622 179.595 155.31 177.924 154.523 177.53C152.459 176.449 149.51 173.795 149.51 173.795C149.51 173.795 151.476 174.483 153.442 173.795C154.523 173.402 154.916 171.731 153.835 171.338C152.459 170.846 150.886 170.945 149.707 169.765C148.429 168.585 147.741 168.291 147.151 168.291C146.561 168.389 142.728 168.389 141.745 168.389C140.762 168.389 138.796 168.192 138.304 168.979C137.813 169.765 136.338 171.436 133.291 173.205C132.702 173.599 119.923 179.3 119.923 179.3L122.184 187.262L125.919 187.065Z" fill="#F9C1A7"/>
<path d="M147.25 168.487C145.972 168.684 144.694 168.88 143.318 168.979C142.63 169.077 142.04 169.077 141.352 169.077C140.664 169.077 140.074 169.077 139.485 169.175C139.19 169.175 138.993 169.273 138.895 169.372C138.895 169.372 138.895 169.372 138.796 169.47C138.698 169.568 138.698 169.667 138.6 169.667C138.502 169.863 138.403 169.962 138.305 170.06C137.813 170.551 137.322 171.043 136.831 171.436C135.749 172.222 134.57 172.91 133.39 173.402C134.373 172.517 135.356 171.731 136.339 170.846C136.831 170.355 137.224 169.962 137.617 169.47C137.715 169.372 137.813 169.273 137.912 169.077C137.912 168.979 138.01 168.979 138.01 168.88C138.108 168.782 138.207 168.684 138.207 168.585C138.6 168.192 138.993 168.094 139.386 168.094C140.074 167.996 140.762 167.996 141.45 167.996C142.139 168.094 142.728 167.996 143.416 168.094C144.596 168.192 145.874 168.29 147.25 168.487Z" fill="#DC918B"/>
<path d="M147.347 184.018C146.954 183.821 146.659 183.428 146.364 183.035C146.069 182.642 145.774 182.347 145.48 182.052C144.89 181.462 144.202 180.971 143.415 180.774C142.629 180.479 141.744 180.381 140.86 180.184C140.368 180.086 139.975 180.086 139.483 179.988C138.992 179.89 138.501 179.693 138.206 179.3C138.599 179.496 139.09 179.496 139.483 179.398C139.975 179.398 140.368 179.3 140.86 179.3C141.843 179.3 142.826 179.3 143.71 179.693C144.693 179.988 145.48 180.676 146.069 181.462C146.364 181.856 146.561 182.347 146.757 182.74C146.954 183.232 147.052 183.723 147.347 184.018Z" fill="#DC918B"/>
<path d="M149.215 179.201C148.527 178.612 147.74 178.218 146.954 177.727C146.561 177.53 146.167 177.236 145.774 177.039C145.381 176.941 144.988 176.842 144.595 176.744C143.71 176.547 142.825 176.351 142.039 176.154C141.646 176.056 141.154 175.958 140.761 175.761C140.368 175.564 139.877 175.466 139.483 175.073C139.877 175.171 140.368 175.073 140.859 175.171C141.351 175.171 141.744 175.171 142.236 175.27C143.12 175.368 144.005 175.564 144.988 175.859C145.479 176.056 145.873 176.253 146.266 176.547C146.659 176.842 147.052 177.137 147.347 177.432C147.937 177.825 148.625 178.415 149.215 179.201Z" fill="#DC918B"/>
<path d="M149.511 173.992C149.216 173.795 148.921 173.697 148.626 173.599C148.429 173.5 148.331 173.402 148.135 173.304C148.036 173.206 147.84 173.206 147.741 173.107C147.152 172.911 146.562 172.812 145.874 172.616C144.596 172.321 143.318 172.124 142.04 171.534C142.728 171.338 143.416 171.338 144.104 171.338C144.793 171.338 145.481 171.436 146.169 171.633C146.857 171.829 147.545 172.026 148.135 172.517C148.233 172.616 148.429 172.812 148.528 172.911C148.626 173.107 148.724 173.206 148.823 173.304C149.019 173.599 149.314 173.795 149.511 173.992Z" fill="#DC918B"/>
<path d="M231.785 137.721C232.374 138.409 232.571 139.195 232.473 140.08L228.148 186.869L225.887 184.51H223.331L224.904 135.951H228.148C229.524 136.05 230.9 136.639 231.785 137.721Z" fill="#474E64"/>
<path d="M157.374 184.608H226.378L230.113 139.588C230.31 137.622 228.737 136.05 226.87 136.05H164.452C162.781 136.05 161.306 137.327 161.208 139.097L157.374 184.608Z" fill="#2A2D39"/>
<path d="M159.734 181.659H224.609L227.853 141.358H163.076L159.734 181.659Z" fill="#BFC6F2"/>
<path d="M213.893 177.519H169.66C168.087 177.519 166.907 176.241 167.006 174.57L169.463 146.949C169.561 145.376 171.036 144 172.609 144H216.842C218.415 144 219.594 145.278 219.496 146.949L217.038 174.57C216.94 176.241 215.466 177.519 213.893 177.519Z" fill="#F7F7FA"/>
<path d="M219.201 150.192H169.07L169.365 147.047C169.464 145.474 170.938 144.098 172.511 144.098H216.744C218.317 144.098 219.496 145.376 219.398 147.047L219.201 150.192Z" fill="#676F8F"/>
<path d="M173.748 148.322C174.219 147.872 174.266 147.157 173.853 146.726C173.44 146.294 172.724 146.31 172.253 146.76C171.782 147.211 171.736 147.926 172.149 148.357C172.562 148.788 173.278 148.773 173.748 148.322Z" fill="#F7F7FA"/>
<path d="M177.285 148.317C177.756 147.866 177.802 147.152 177.389 146.72C176.977 146.289 176.26 146.304 175.79 146.755C175.319 147.205 175.272 147.92 175.685 148.352C176.098 148.783 176.814 148.767 177.285 148.317Z" fill="#F7F7FA"/>
<path d="M180.723 148.309C181.193 147.859 181.24 147.144 180.827 146.712C180.414 146.281 179.698 146.296 179.227 146.747C178.757 147.197 178.71 147.912 179.123 148.344C179.536 148.775 180.252 148.76 180.723 148.309Z" fill="#F7F7FA"/>
<path d="M180.965 160.121L180.866 161.203C180.866 161.301 180.866 161.399 180.768 161.399C180.67 161.497 180.572 161.497 180.473 161.497H179.982L179.785 163.463H178.212L178.409 161.497H174.772C174.674 161.497 174.575 161.497 174.477 161.399C174.379 161.301 174.379 161.203 174.281 161.104L174.182 160.22L178.704 154.813H180.473L179.982 160.121H180.965ZM178.507 160.121L178.704 157.861C178.704 157.762 178.704 157.566 178.802 157.369C178.802 157.172 178.9 157.074 178.9 156.878L176.345 160.121H178.507Z" fill="#676F8F"/>
<path d="M188.042 159.138C187.944 159.924 187.845 160.612 187.649 161.103C187.452 161.693 187.157 162.086 186.862 162.48C186.567 162.873 186.174 163.168 185.781 163.266C185.388 163.463 184.896 163.561 184.503 163.561C184.012 163.561 183.619 163.463 183.225 163.266C182.832 163.069 182.537 162.774 182.242 162.48C181.948 162.086 181.849 161.693 181.653 161.103C181.554 160.514 181.554 159.924 181.554 159.138C181.653 158.351 181.751 157.663 181.948 157.172C182.144 156.582 182.439 156.189 182.734 155.795C183.029 155.402 183.422 155.107 183.815 155.009C184.208 154.813 184.7 154.714 185.093 154.714C185.584 154.714 185.978 154.813 186.371 155.009C186.764 155.206 187.059 155.501 187.354 155.795C187.649 156.189 187.845 156.582 187.944 157.172C188.14 157.663 188.14 158.351 188.042 159.138ZM186.174 159.138C186.273 158.548 186.273 158.056 186.174 157.663C186.174 157.27 186.076 156.975 185.978 156.778C185.879 156.582 185.781 156.385 185.584 156.287C185.388 156.189 185.29 156.189 185.093 156.189C184.896 156.189 184.798 156.189 184.602 156.287C184.405 156.385 184.307 156.484 184.11 156.778C184.012 156.975 183.815 157.27 183.717 157.663C183.619 158.056 183.52 158.548 183.52 159.138C183.422 159.727 183.422 160.219 183.52 160.612C183.52 161.005 183.619 161.3 183.717 161.497C183.815 161.693 183.913 161.89 184.11 161.988C184.307 162.086 184.405 162.086 184.602 162.086C184.798 162.086 184.896 162.086 185.093 161.988C185.29 161.89 185.388 161.792 185.584 161.497C185.683 161.3 185.879 161.005 185.978 160.612C185.978 160.219 186.076 159.727 186.174 159.138Z" fill="#676F8F"/>
<path d="M194.923 160.12L194.825 161.202C194.825 161.3 194.825 161.398 194.726 161.398C194.628 161.497 194.53 161.496 194.431 161.496H193.94L193.743 163.462H192.171L192.367 161.496H188.829C188.73 161.496 188.632 161.497 188.534 161.398C188.435 161.3 188.435 161.202 188.337 161.103L188.239 160.219L192.76 154.812H194.53L194.038 160.12H194.923ZM192.367 160.12L192.564 157.86C192.564 157.761 192.564 157.565 192.662 157.368C192.662 157.171 192.76 157.073 192.76 156.877L190.205 160.12H192.367Z" fill="#676F8F"/>
<path d="M176.147 168.28V168.771H173.985L174.28 165.233H176.442V165.724H174.771L174.673 166.805H175.951V167.297H174.673L174.575 168.378H176.147V168.28Z" fill="#676F8F"/>
<path d="M180.374 168.672H179.883C179.784 168.672 179.686 168.672 179.686 168.574L178.998 167.394L178.9 167.296H178.802H178.507L178.408 168.672H177.72L178.015 165.133H179.096C179.293 165.133 179.49 165.133 179.686 165.232C179.883 165.33 179.981 165.33 180.079 165.428C180.178 165.527 180.276 165.625 180.276 165.723C180.276 165.821 180.374 166.018 180.276 166.116C180.276 166.215 180.276 166.313 180.178 166.411C180.178 166.51 180.079 166.608 179.981 166.706C179.883 166.804 179.784 166.903 179.686 166.903C179.588 167.001 179.49 167.001 179.293 167.099C179.391 167.099 179.391 167.198 179.49 167.296L180.374 168.672ZM178.9 166.903C178.998 166.903 179.096 166.903 179.293 166.903C179.391 166.903 179.49 166.804 179.588 166.804C179.686 166.706 179.686 166.706 179.784 166.608C179.784 166.51 179.883 166.411 179.883 166.313C179.883 166.116 179.883 166.018 179.686 165.92C179.588 165.821 179.391 165.723 179.096 165.723H178.605L178.507 167.001H178.9V166.903Z" fill="#676F8F"/>
<path d="M184.502 168.672H184.011C183.912 168.672 183.814 168.672 183.814 168.574L183.126 167.394L183.028 167.296H182.929H182.634L182.536 168.672H181.946L182.241 165.133H183.322C183.519 165.133 183.716 165.133 183.912 165.232C184.109 165.33 184.207 165.33 184.305 165.428C184.404 165.527 184.502 165.625 184.502 165.723C184.502 165.821 184.6 166.018 184.502 166.116C184.502 166.215 184.502 166.313 184.404 166.411C184.404 166.51 184.305 166.608 184.207 166.706C184.109 166.804 184.011 166.903 183.912 166.903C183.814 167.001 183.716 167.001 183.519 167.099C183.617 167.099 183.617 167.198 183.716 167.296L184.502 168.672ZM183.028 166.903C183.126 166.903 183.224 166.903 183.421 166.903C183.519 166.903 183.617 166.804 183.716 166.804C183.814 166.706 183.814 166.706 183.912 166.608C183.912 166.51 184.011 166.411 184.011 166.313C184.011 166.116 184.011 166.018 183.814 165.92C183.716 165.821 183.519 165.723 183.224 165.723H182.634L182.536 167.001H183.028V166.903Z" fill="#676F8F"/>
<path d="M189.319 166.903C189.319 167.198 189.221 167.394 189.122 167.591C189.024 167.787 188.926 167.984 188.729 168.181C188.532 168.377 188.336 168.475 188.139 168.574C187.943 168.672 187.648 168.672 187.451 168.672C187.156 168.672 186.96 168.672 186.763 168.574C186.567 168.475 186.37 168.377 186.272 168.181C186.173 167.984 186.075 167.787 185.977 167.591C185.878 167.394 185.878 167.099 185.878 166.903C185.878 166.608 185.977 166.411 186.075 166.215C186.173 166.018 186.272 165.821 186.468 165.625C186.665 165.428 186.861 165.33 187.058 165.232C187.255 165.133 187.549 165.133 187.746 165.133C188.041 165.133 188.238 165.133 188.434 165.232C188.631 165.33 188.827 165.428 188.926 165.625C189.024 165.821 189.122 166.018 189.221 166.215C189.319 166.411 189.319 166.706 189.319 166.903ZM188.729 166.903C188.729 166.706 188.729 166.51 188.729 166.313C188.729 166.116 188.631 166.018 188.532 165.92C188.434 165.821 188.336 165.723 188.139 165.625C188.041 165.527 187.844 165.527 187.648 165.527C187.451 165.527 187.353 165.527 187.156 165.625C186.96 165.723 186.861 165.723 186.763 165.92C186.665 166.018 186.567 166.215 186.468 166.313C186.37 166.51 186.37 166.608 186.37 166.903C186.37 167.099 186.37 167.296 186.37 167.493C186.37 167.689 186.468 167.787 186.567 167.886C186.665 167.984 186.763 168.082 186.96 168.181C187.058 168.279 187.255 168.279 187.451 168.279C187.648 168.279 187.844 168.279 187.943 168.181C188.139 168.082 188.238 168.082 188.336 167.886C188.434 167.787 188.532 167.591 188.631 167.493C188.631 167.296 188.729 167.099 188.729 166.903Z" fill="#676F8F"/>
<path d="M193.448 168.672H192.956C192.858 168.672 192.76 168.672 192.76 168.574L192.071 167.394L191.973 167.296H191.875H191.58L191.482 168.672H190.892L191.187 165.133H192.268C192.465 165.133 192.661 165.133 192.858 165.232C193.054 165.33 193.153 165.33 193.251 165.428C193.349 165.527 193.448 165.625 193.448 165.723C193.448 165.821 193.546 166.018 193.448 166.116C193.448 166.215 193.448 166.313 193.349 166.411C193.349 166.51 193.251 166.608 193.153 166.706C193.054 166.804 192.956 166.903 192.858 166.903C192.759 167.001 192.661 167.001 192.465 167.099C192.563 167.099 192.563 167.198 192.661 167.296L193.448 168.672ZM191.875 166.903C191.973 166.903 192.071 166.903 192.268 166.903C192.366 166.903 192.465 166.804 192.563 166.804C192.661 166.706 192.661 166.706 192.76 166.608C192.76 166.51 192.858 166.411 192.858 166.313C192.858 166.116 192.858 166.018 192.661 165.92C192.563 165.821 192.366 165.723 192.071 165.723H191.58L191.482 167.001H191.875V166.903Z" fill="#676F8F"/>
<path d="M210.191 166.767C213.329 163.764 213.651 159.009 210.91 156.146C208.17 153.283 203.405 153.397 200.268 156.4C197.13 159.403 196.808 164.159 199.549 167.021C202.289 169.884 207.054 169.771 210.191 166.767Z" fill="#E1E4F4"/>
<path d="M203.848 160.221C204.358 159.733 204.437 158.988 204.024 158.556C203.611 158.125 202.863 158.171 202.353 158.659C201.843 159.147 201.765 159.892 202.177 160.324C202.59 160.755 203.338 160.709 203.848 160.221Z" fill="#676F8F"/>
<path d="M208.558 160.2C209.068 159.712 209.147 158.967 208.734 158.536C208.321 158.104 207.573 158.15 207.063 158.638C206.553 159.126 206.475 159.872 206.888 160.303C207.301 160.734 208.049 160.688 208.558 160.2Z" fill="#676F8F"/>
<path d="M202 165.428C202.098 163.855 203.573 162.578 205.146 162.578C206.718 162.578 207.898 163.855 207.701 165.428" stroke="#676F8F" stroke-width="1.26983" stroke-miterlimit="10" stroke-linecap="round"/>
<path d="M170.645 184.608H228.246V186.967C228.246 188.245 227.165 189.326 225.887 189.326H172.906C171.628 189.326 170.547 188.245 170.547 186.967V184.608H170.645Z" fill="#474E64"/>
<path d="M124.642 184.608H197.479V186.967C197.479 188.245 196.398 189.228 195.219 189.228H127.001C125.723 189.228 124.74 188.147 124.74 186.967V184.608H124.642Z" fill="#57617F"/>
<path d="M153.541 187.066H161.896C162.683 187.066 163.272 186.476 163.272 185.689V184.608H152.067V185.689C152.165 186.476 152.755 187.066 153.541 187.066Z" fill="#474E64"/>
<path d="M14.3533 237.295C25.2642 275.04 53.3768 270.322 53.3768 270.322L140.369 270.519C129.163 268.749 127.394 239.949 127.394 239.949C127.885 195.617 59.9627 180.774 59.9627 180.774C36.9614 125.335 4.03225 134.87 4.03225 134.87C4.03225 134.87 -10.0241 153.055 14.3533 237.295Z" fill="#F75C68"/>
<path d="M122.184 187.95L125.821 187.163C129.753 190.8 137.322 183.821 137.617 183.92L122.774 182.74L122.184 187.95Z" fill="#F9C1A7"/>
<path d="M119.628 129.366C118.547 127.793 120.218 125.04 120.316 123.075C120.415 121.109 117.859 118.848 119.432 117.373C120.808 116.096 123.265 112.753 123.56 111.279C123.953 109.805 123.953 106.069 125.723 106.659C129.261 107.839 128.18 113.835 126.509 116.685C126.509 117.767 126.607 118.75 126.706 119.733C127.689 119.634 128.18 119.831 129.261 119.634C130.343 119.438 132.308 118.75 133.488 118.455C134.668 118.16 139.779 117.472 141.057 116.98C142.335 116.587 143.219 116.685 144.301 115.702C145.382 114.719 148.92 110.689 153.049 112.557C154.032 112.95 153.639 113.638 153.835 114.228C154.818 114.719 156.391 114.916 156.784 116.096C157.177 117.275 155.015 118.455 154.327 119.143C154.622 119.733 156.489 120.224 156.293 121.109C156.096 121.993 151.673 127.301 150.198 128.579C149.707 128.972 147.348 129.071 147.348 129.071C146.168 130.447 144.989 131.823 144.399 132.216C142.728 133.297 137.616 134.477 136.142 135.067C134.668 135.656 133.39 136.639 131.227 137.033C129.065 137.524 126.017 137.327 123.953 135.656C121.889 133.985 120.415 131.921 119.628 129.366Z" fill="#FAC2A8"/>
<path d="M126.607 120.027C127.197 121.109 127.59 122.288 127.59 123.566C127.59 124.254 127.394 124.844 127.099 125.434C126.705 126.024 126.214 126.417 125.624 126.613C125.919 126.024 126.214 125.532 126.411 125.041C126.607 124.549 126.804 124.058 126.804 123.468C126.804 122.485 126.607 121.305 126.607 120.027Z" fill="#DC918B"/>
<path d="M137.321 129.366C137.714 129.071 138.206 128.972 138.697 128.776C139.189 128.678 139.68 128.579 140.073 128.383C141.056 128.186 141.941 127.989 142.924 127.891L142.727 127.989C143.219 127.301 143.514 126.515 144.005 125.827C144.497 125.139 145.185 124.549 145.971 124.156C146.758 123.763 147.642 123.566 148.527 123.566C149.018 123.566 149.51 123.763 149.805 124.156C150.198 124.549 150.198 125.041 150.296 125.532V125.63L150.198 125.729L148.822 127.498C148.33 128.088 147.839 128.678 147.249 129.169C147.544 128.481 147.937 127.793 148.429 127.203L149.805 125.434L149.706 125.63C149.706 125.237 149.608 124.942 149.412 124.647C149.215 124.451 148.822 124.254 148.527 124.254C147.741 124.156 146.954 124.451 146.266 124.746C145.578 125.041 144.988 125.63 144.497 126.22C144.005 126.81 143.71 127.596 143.219 128.383L143.121 128.481H143.022L140.172 128.972L138.796 129.169C138.304 129.169 137.813 129.267 137.321 129.366Z" fill="#DC918B"/>
<path d="M155.015 119.831C154.326 119.733 153.737 119.831 153.147 120.126C152.557 120.421 152.066 120.716 151.574 121.109C150.591 121.895 149.707 122.878 149.215 123.959L149.117 124.156H148.92C148.527 124.156 148.134 124.156 147.741 124.254C147.347 124.352 146.954 124.451 146.659 124.647L146.561 124.746H146.463C145.775 124.647 144.988 124.647 144.202 124.746C143.416 124.844 142.629 124.942 141.941 125.041C140.368 125.335 138.894 125.63 137.42 126.023L137.223 125.532C138.697 125.041 140.27 124.647 141.843 124.352C142.629 124.254 143.416 124.058 144.202 124.058C144.988 123.959 145.775 123.959 146.659 124.058H146.463C146.856 123.861 147.249 123.664 147.741 123.566C148.134 123.468 148.625 123.37 149.117 123.468L148.822 123.664C149.412 122.387 150.395 121.404 151.476 120.617C152.066 120.224 152.557 119.831 153.245 119.634C153.638 119.438 154.425 119.438 155.015 119.831Z" fill="#DC918B"/>
<path d="M153.344 114.621C152.557 114.621 151.673 114.818 150.985 115.211C150.297 115.506 149.51 115.997 148.921 116.39C148.232 116.882 147.643 117.373 146.955 117.865C146.365 118.356 145.677 118.946 145.185 119.536C142.63 120.912 139.877 121.698 137.027 122.485L136.928 121.993C139.681 121.305 142.433 120.421 144.989 119.143L144.89 119.241C145.972 117.963 147.348 116.882 148.724 115.997C149.412 115.506 150.198 115.211 150.985 114.916C151.673 114.621 152.557 114.523 153.344 114.621Z" fill="#DC918B"/>
<path d="M137.321 120.126C137.616 121.502 137.518 122.78 137.419 124.058C137.321 125.335 137.321 126.613 137.124 127.891C136.633 126.613 136.436 125.335 136.436 123.959C136.535 122.681 136.829 121.404 137.321 120.126Z" fill="#DC918B"/>
<path d="M152.361 112.95C151.476 112.753 151.378 112.164 151.28 111.574C151.28 111.279 151.28 110.984 151.378 110.689C151.476 110.394 151.673 110.099 151.968 109.903L152.263 110.689C152.361 110.886 152.459 111.181 152.459 111.377C152.459 111.574 152.656 111.77 152.656 112.065C152.558 112.36 152.558 112.557 152.361 112.95Z" fill="#DC918B"/>
<path d="M150.592 110.984C151.083 110.787 151.28 110.787 151.476 110.787C151.575 110.787 151.673 110.787 151.771 110.886C151.771 110.886 151.673 110.886 151.476 111.082C151.673 110.886 152.066 110.886 152.263 111.082C152.459 111.279 152.459 111.672 152.263 111.869C151.968 112.164 151.771 112.164 151.575 112.164C151.378 112.164 151.378 112.164 151.28 112.065C151.083 111.967 150.985 111.967 150.887 111.869C150.69 111.77 150.493 111.476 150.592 110.984Z" fill="#DC918B"/>
<path d="M157.374 96.2396C157.374 96.2396 167.499 88.1793 171.136 97.2225C174.772 106.266 155.015 117.865 146.758 108.33C146.856 108.232 147.839 103.317 157.374 96.2396Z" fill="#F7AB8D"/>
<path d="M196.004 52.3995C202.688 58.4938 196.2 67.2422 193.841 71.3706C186.764 83.9525 166.515 98.3037 162.19 103.12C162.19 103.12 184.995 42.3733 196.004 52.3995Z" fill="#2B2E3A"/>
<path d="M195.808 57.511C195.808 57.511 148.331 123.271 142.63 126.22C136.929 129.169 117.073 125.335 107.735 120.322C98.3966 115.309 90.4346 90.8334 90.4346 85.4271C90.4346 82.5765 99.183 64.49 109.013 46.8951C117.466 31.7575 123.265 15.1455 128.475 10.4272C128.475 10.4272 177.721 16.8165 195.808 57.511Z" fill="#F9C1A7"/>
<path d="M138.107 66.3832C138.973 65.5605 139.008 64.1917 138.185 63.3259C137.362 62.4601 135.993 62.4253 135.128 63.248C134.262 64.0708 134.227 65.4396 135.05 66.3054C135.872 67.1712 137.241 67.206 138.107 66.3832Z" fill="#31374C"/>
<path d="M138.092 65.711C138.333 65.4919 138.322 65.0864 138.066 64.8052C137.81 64.5239 137.408 64.4736 137.167 64.6927C136.926 64.9117 136.938 65.3173 137.193 65.5985C137.449 65.8798 137.851 65.9301 138.092 65.711Z" fill="white"/>
<path d="M162.88 85.1649C163.746 84.3421 163.781 82.9733 162.958 82.1075C162.135 81.2417 160.766 81.2069 159.9 82.0297C159.035 82.8524 159 84.2212 159.823 85.087C160.645 85.9528 162.014 85.9876 162.88 85.1649Z" fill="#31374C"/>
<path d="M162.937 84.4252C163.178 84.2062 163.166 83.8006 162.91 83.5194C162.655 83.2382 162.252 83.1878 162.011 83.4069C161.77 83.626 161.782 84.0316 162.038 84.3128C162.293 84.594 162.696 84.6443 162.937 84.4252Z" fill="white"/>
<path d="M112.453 57.7076C112.453 57.7076 110.978 61.8361 109.799 66.3577C106.948 77.2685 125.919 76.3839 141.155 94.1755C145.185 98.8937 145.677 101.548 150.002 106.364C155.801 112.852 165.336 98.5005 167.4 96.1414C155.703 111.672 146.955 125.728 141.352 128.579C135.749 131.331 115.5 128.382 107.538 121.01C98.593 112.753 86.2077 92.3078 86.1094 87.0981C86.1094 84.5424 93.5799 70.2895 102.033 54.7588L106.752 44.2411L112.453 57.7076Z" fill="#2B2E3A"/>
<path opacity="0.2" d="M133.782 73.042C132.799 74.3199 129.851 73.6318 127.295 71.6659C124.739 69.6017 123.363 66.9477 124.444 65.6698C125.427 64.392 128.376 65.0801 130.932 67.046C133.487 69.1102 134.765 71.7642 133.782 73.042Z" fill="#EF3F54"/>
<path opacity="0.2" d="M164.55 94.8636C163.96 96.1414 161.306 96.1414 158.75 94.8636C156.194 93.5857 154.622 91.5215 155.211 90.2437C155.801 88.9658 158.455 88.9658 161.011 90.2437C163.665 91.5215 165.238 93.5857 164.55 94.8636Z" fill="#EF3F54"/>
<path d="M155.703 55.152C152.361 51.7116 149.019 47.0917 139.779 44.536C136.535 43.6514 138.993 47.2883 141.155 48.2713C144.104 50.1389 146.955 52.6946 151.181 56.0367C153.442 57.806 158.357 57.9043 155.703 55.152Z" fill="#2B2E3A"/>
<path d="M171.037 68.1271C174.674 71.3709 178.704 72.9436 181.653 81.9869C182.734 85.1323 178.999 82.9698 177.819 80.8073C175.853 77.9567 173.887 76.7772 170.349 72.6488C168.481 70.4862 168.186 65.5714 171.037 68.1271Z" fill="#2B2E3A"/>
<path opacity="0.56" d="M152.656 62.8191C152.656 62.8191 155.998 70.4862 162.584 74.6146C162.584 74.6146 148.233 79.1362 146.758 96.8295C146.758 96.8295 135.946 94.9619 133.586 85.4272C133.586 85.4272 146.267 76.9737 152.656 62.8191Z" fill="url(#paint0_linear)"/>
<path d="M112.452 57.7076C112.452 57.7076 115.991 47.6814 127.098 42.57C135.257 38.8348 140.663 24.5819 140.172 19.1756C140.172 19.1756 125.526 6.10221 124.444 6.2005C117.957 6.59369 106.358 13.5727 98.1995 47.1899L112.452 57.7076Z" fill="#2B2E3A"/>
<path d="M106.359 53.2843C106.359 53.2843 110.29 44.2411 101.64 41.882C92.8921 39.6211 78.6391 59.7718 97.1188 66.8491C97.1188 66.8491 103.213 66.5542 106.359 53.2843Z" fill="#F9C1A7"/>
<path d="M97.5114 46.6003C98.691 46.6986 99.7722 46.9935 100.755 47.6816C101.738 48.2714 102.23 49.3526 102.328 50.4339C102.426 51.5151 102.23 52.5964 101.836 53.6777C101.542 54.7589 101.05 55.7419 100.559 56.7248L101.05 56.6265C100.165 55.9385 99.1825 55.3487 98.1012 55.2504C97.02 55.1521 95.9387 55.7419 95.2506 56.5282C94.8574 56.9214 94.6608 57.4129 94.5625 57.9044C94.4643 58.3959 94.4643 58.9856 94.6609 59.4771C94.9557 60.4601 95.6438 61.3447 96.4302 62.0328C95.7421 61.2464 95.2506 60.3618 95.054 59.3788C94.9557 58.8873 94.9557 58.3959 95.054 58.0027C95.2506 57.6095 95.4472 57.118 95.7421 56.8231C96.4302 56.1351 97.3148 55.7419 98.1995 55.8402C99.0842 55.9385 100.067 56.4299 100.755 57.0197L101.05 57.3146L101.247 56.9214C101.738 55.9385 102.23 54.8572 102.525 53.7759C102.819 52.6947 103.114 51.5151 102.918 50.3356C102.721 49.156 102.033 47.9765 101.05 47.2884C99.8705 46.7969 98.691 46.6003 97.5114 46.6003Z" fill="#DC918B"/>
<path d="M146.758 96.8295C146.758 96.8295 129.753 101.744 133.586 85.4271C133.586 85.4271 138.796 92.8976 146.758 96.8295Z" fill="#DC918B"/>
<path d="M204.457 50.0406C202.589 41.0956 199.346 23.6973 186.764 15.5387C180.375 11.6068 175.656 9.24775 168.874 8.55967C170.053 7.8716 176.05 7.8716 176.344 7.08523C176.738 6.00398 137.321 -7.85575 125.525 6.39716C122.38 7.18353 120.316 7.9699 119.824 8.65797C117.269 11.8034 127.491 40.8008 131.718 31.6592C134.962 23.6973 134.962 22.5177 138.894 22.4194C146.069 22.2228 154.621 27.6291 169.955 45.9121C177.131 54.4639 204.752 74.418 211.633 63.1139C211.534 63.1139 206.423 58.9855 204.457 50.0406Z" fill="#2B2E3A"/>
<path d="M121.889 97.4192C122.676 101.941 115.5 105.283 120.808 110.886C126.903 117.275 133.193 109.608 132.014 106.168L121.889 97.4192Z" fill="#EF3F54"/>
<path d="M127.591 102.334C127.886 102.924 127.886 103.612 127.886 104.3C127.787 104.988 127.689 105.578 127.394 106.168C126.903 107.347 126.018 108.428 124.937 109.117C125.133 108.527 125.428 107.937 125.723 107.347C126.018 106.757 126.215 106.266 126.411 105.676C126.804 104.693 127.296 103.612 127.591 102.334Z" fill="#BD1A3B"/>
<path d="M137.42 111.082C133.39 108.133 129.753 104.89 126.017 101.548C124.248 99.8766 122.381 98.2055 120.709 96.4362C118.94 94.6669 117.269 92.8975 115.598 91.0299C117.662 92.4061 119.628 93.9788 121.496 95.5515C123.363 97.1243 125.231 98.697 127.099 100.368C128.868 102.039 130.736 103.71 132.407 105.479C134.176 107.347 135.847 109.116 137.42 111.082Z" fill="#57617F"/>
<path d="M118.252 87.2948C118.252 88.0812 117.957 88.8675 117.662 89.5556C117.367 90.2437 116.876 90.8335 116.384 91.4232C115.893 92.013 115.303 92.5045 114.713 92.8977C114.123 93.2909 113.435 93.684 112.649 93.8806C113.042 93.1926 113.435 92.6028 113.829 92.013C114.222 91.4232 114.713 90.9317 115.205 90.342C116.188 89.2607 117.072 88.2778 118.252 87.2948Z" fill="#57617F"/>
<path d="M135.061 130.152C135.061 130.152 128.278 128.284 126.509 129.464C125.329 130.25 124.543 131.43 124.543 131.43" fill="#FAC2A8"/>
<path d="M135.062 130.152C133.096 129.955 131.228 129.661 129.36 129.562C128.869 129.562 128.476 129.562 127.984 129.562C127.591 129.562 127.1 129.661 126.805 129.857C126.018 130.25 125.33 130.938 124.544 131.528C124.839 130.545 125.527 129.759 126.313 129.169C127.394 128.579 128.476 128.776 129.459 128.776C131.425 128.874 133.292 129.366 135.062 130.152Z" fill="#DC918B"/>
<path d="M137.42 130.25C138.01 129.857 143.023 128.186 143.023 128.186C143.809 126.908 144.006 126.122 145.185 125.139C146.66 123.861 150.1 123.173 150.1 125.63L147.348 129.169" fill="#FAC2A8"/>
<path d="M137.42 130.25C137.814 129.955 138.305 129.759 138.698 129.562C139.19 129.366 139.583 129.169 140.074 128.972C140.959 128.579 141.942 128.284 142.827 127.989L142.63 128.088C143.121 127.4 143.416 126.613 143.908 125.925C144.399 125.237 145.087 124.647 145.874 124.254C146.66 123.861 147.545 123.664 148.429 123.664C148.921 123.664 149.412 123.861 149.707 124.254C150.101 124.647 150.199 125.139 150.1 125.63V125.729L150.002 125.827L148.626 127.596C148.135 128.186 147.643 128.776 147.053 129.267C147.348 128.579 147.741 127.891 148.233 127.301L149.609 125.532L149.511 125.729C149.511 125.335 149.412 125.041 149.216 124.746C149.019 124.549 148.626 124.352 148.331 124.352C147.545 124.254 146.758 124.451 146.07 124.844C145.382 125.139 144.793 125.729 144.301 126.318C143.81 126.908 143.515 127.695 143.023 128.481L142.925 128.579H142.827L139.976 129.562L138.6 129.955L137.42 130.25Z" fill="#DC918B"/>
<path d="M126.411 151.679C126.411 151.679 128.082 159.936 129.851 162.885L126.411 151.679Z" fill="#FAC2A8"/>
<path d="M126.411 151.679C127.197 153.546 127.787 155.414 128.279 157.282L129.065 160.132C129.36 161.115 129.557 162 129.851 162.983C129.163 162.197 128.77 161.312 128.377 160.427C127.984 159.543 127.689 158.56 127.394 157.675C126.804 155.611 126.411 153.743 126.411 151.679Z" fill="#DC918B"/>
<path d="M89.1566 145.093C88.1737 145.781 87.289 146.666 86.6992 147.55C86.4043 148.042 86.2077 148.533 86.2077 149.025C86.2077 149.418 86.4043 150.008 86.6009 150.597C87.289 152.858 88.0754 155.119 88.7634 157.38L88.8617 157.773H88.5668C87.7805 157.773 87.0924 157.773 86.306 157.675C86.9941 157.478 87.7805 157.38 88.5668 157.183L88.3703 157.576C87.289 155.414 86.4043 153.251 85.7163 150.892C85.5197 150.303 85.3231 149.713 85.4214 149.025C85.5197 148.337 85.8146 147.649 86.2077 147.157C86.9941 146.174 87.9771 145.584 89.1566 145.093Z" fill="#BD1A3B"/>
<path d="M120.709 136.738C122.085 139.392 123.068 142.242 123.855 145.191C124.641 148.042 125.132 150.991 125.231 154.038C124.346 151.187 123.658 148.337 122.872 145.486C122.183 142.537 121.397 139.687 120.709 136.738Z" fill="#BD1A3B"/>
<defs>
<linearGradient id="paint0_linear" x1="156.744" y1="65.3762" x2="139.763" y2="94.0324" gradientUnits="userSpaceOnUse">
<stop stop-color="#F9C1A7"/>
<stop offset="0.2907" stop-color="#F4B8A2"/>
<stop offset="0.7644" stop-color="#E5A094"/>
<stop offset="1" stop-color="#DC918B"/>
</linearGradient>
</defs>
</svg>
