<?xml version="1.0" encoding="utf-8"?>
<!-- Generator: Adobe Illustrator 22.1.0, SVG Export Plug-In . SVG Version: 6.00 Build 0)  -->
<svg version="1.1" id="Layer_1" xmlns="http://www.w3.org/2000/svg" xmlns:xlink="http://www.w3.org/1999/xlink" x="0px" y="0px"
	 viewBox="0 0 40 40" style="enable-background:new 0 0 40 40;" xml:space="preserve">
<style type="text/css">
	.st0{fill:#E1E4F4;}
	.st1{fill:#57617F;}
	.st2{fill:#8698BF;}
	.st3{fill:#BFC6F2;}
	.st4{fill:#FDFDFD;}
	.st5{fill:#F97A7A;}
	.st6{fill:#FFD385;}
	.st7{fill:#EF3F54;}
	.st8{fill:#FFB75E;}
</style>
<path class="st0" d="M33.9,32l-19.7,5.3C11.5,38,8.7,36.5,8,33.8L2.7,14.1C2,11.4,3.6,8.7,6.2,8L26,2.7c2.6-0.7,5.4,0.9,6.1,3.5
	l5.3,19.7C38.1,28.6,36.5,31.3,33.9,32z"/>
<path class="st1" d="M13.6,30c-0.2,0-0.3-0.1-0.3-0.3l-0.2-2.3c0-0.2,0.1-0.3,0.3-0.3c0.2,0,0.3,0.1,0.3,0.3l0.2,2.3
	C13.9,29.9,13.7,30,13.6,30L13.6,30z"/>
<path class="st1" d="M12.1,10.3c0.2,0,0.4-0.1,0.4-0.3c0-0.1-0.2-0.3-0.4-0.3c-0.2,0-0.4,0.1-0.4,0.3C11.7,10.2,11.8,10.3,12.1,10.3
	z"/>
<path class="st1" d="M11.7,10.1l0.1,1.3l0.9-0.1l-0.1-1.3H11.7z"/>
<path class="st2" d="M28.2,31.8l-10.9-6.3c-0.4-0.2-0.5-0.6-0.5-1l3-20.8C19.9,3,20.7,2.6,21.3,3l10.9,6.3c0.4,0.2,0.5,0.6,0.5,1
	l-2.9,20.8C29.6,31.8,28.8,32.2,28.2,31.8z"/>
<path class="st3" d="M26.6,32.7l-10.9-6.3c-0.4-0.2-0.5-0.6-0.5-1l3-20.8c0.1-0.7,0.9-1.1,1.5-0.7l10.9,6.3c0.4,0.2,0.5,0.6,0.5,1
	L28.1,32C28,32.7,27.2,33.1,26.6,32.7z"/>
<path class="st4" d="M25,33.6l-10.9-6.3c-0.4-0.2-0.5-0.6-0.5-1l3-20.8c0.1-0.7,0.9-1.1,1.5-0.7L29,11.1c0.4,0.2,0.5,0.6,0.5,1
	l-2.9,20.8C26.4,33.6,25.6,34,25,33.6z"/>
<path class="st5" d="M16.1,9.2l0.5-3.6c0.1-0.7,0.9-1.1,1.5-0.7L29,11.1c0.4,0.2,0.5,0.6,0.5,1l-0.6,4.4L16.1,9.2z"/>
<path class="st6" d="M17.4,19.1l-0.1,0.8l7.6,4.4l0.1-0.8L17.4,19.1z"/>
<path class="st6" d="M16.6,25l-0.1,0.8l3.8,2.2l0.1-0.8L16.6,25z"/>
<path class="st6" d="M24.5,15.9l-0.1,0.8l2.4,1.4l0.1-0.8L24.5,15.9z"/>
<path class="st6" d="M17.8,16.6l-0.1,0.8l6.1,3.6l0.1-0.8L17.8,16.6z"/>
<path class="st6" d="M17.2,20.8L17,21.6l7.6,4.4l0.1-0.8L17.2,20.8z"/>
<path class="st6" d="M16.9,22.5l-0.1,0.8l7.6,4.4l0.1-0.8L16.9,22.5z"/>
<path class="st5" d="M11.5,11.4h1.4c0,0,1.4,5.3,1.5,10c0.1,4.1-0.3,7.3-0.3,7.3h-1.2c0,0-1-2.9-1.5-7C10.9,17,11.5,11.4,11.5,11.4z
	"/>
<path class="st5" d="M12.1,11.8c0.4,0,0.7-0.2,0.7-0.4c0-0.2-0.3-0.4-0.7-0.4c-0.4,0-0.7,0.2-0.7,0.4C11.4,11.6,11.8,11.8,12.1,11.8
	z"/>
<path class="st7" d="M12.8,21.3c0.8,0,1.4-0.3,1.5-0.8c0-0.2,0-0.4,0-0.7c-0.2,0.4-0.8,0.8-1.5,0.8c-0.8,0-1.4-0.3-1.5-0.8
	c0,0.2,0,0.5,0,0.7C11.4,20.9,12,21.3,12.8,21.3z"/>
<path class="st5" d="M13.5,29.1c0.3,0,0.6-0.2,0.6-0.4c0-0.2-0.3-0.4-0.6-0.4c-0.3,0-0.6,0.2-0.6,0.4C12.9,29,13.1,29.1,13.5,29.1z"
	/>
<path class="st8" d="M11.9,14.3l-0.8,0.2l0.2-0.3l0.3,4.5l-0.5-0.3l0.6-0.3c0.2-0.1,0.4,0,0.4,0.1c0.1,0.2,0,0.4-0.1,0.4l-0.6,0.3
	c-0.2,0.1-0.4,0-0.4-0.1c0,0,0-0.1,0-0.1l-0.3-4.5c0-0.1,0-0.2,0.1-0.3l0,0l0.6-0.4c0.2-0.1,0.5-0.1,0.7,0.1
	c0.1,0.2,0.1,0.5-0.1,0.7C12,14.2,12,14.3,11.9,14.3z"/>
</svg>
