<svg width="64" height="64" viewBox="0 0 64 64" fill="none" xmlns="http://www.w3.org/2000/svg">
<path d="M54.1735 51.2491L22.5871 59.7168C18.3434 60.8491 13.9815 58.3384 12.8394 54.0947L4.37169 22.5082C3.23939 18.2645 5.75016 13.9027 9.99385 12.7605L41.5803 4.29284C45.824 3.16053 50.1859 5.6713 51.328 9.91499L59.7957 41.5015C60.9379 45.7451 58.4172 50.107 54.1735 51.2491Z" fill="#F7F7FA"/>
<path d="M48.4037 12.4653C46.7003 8.8025 43.8843 5.65173 40.2019 3.58404C35.8105 1.11265 30.8382 1.36865 26.9194 3.5545L26.8308 3.60373C26.821 3.61358 26.8111 3.61358 26.8013 3.62342L23.7785 5.31696L24.005 5.7305C21.9668 7.71942 20.5293 10.3779 20.0763 13.509L19.9976 14.0505C19.269 19.1508 20.5785 24.192 23.4339 28.229C25.0782 30.5527 27.2345 32.5416 29.8142 34.0087L29.824 34.0185C31.941 35.2197 34.1859 35.7711 36.3914 35.781L41.8167 51.456C41.925 51.7613 42.2696 51.8893 42.5453 51.7317L44.5539 50.5699C45.6763 49.92 46.1883 48.5613 45.7551 47.3403L41.4819 34.9834L42.88 34.1957C42.9982 34.1367 43.1065 34.0677 43.2148 34.0087L43.4905 33.8511C43.8548 33.6345 44.2191 33.3982 44.5637 33.1422C47.3699 31.0843 49.4179 27.9434 49.9594 24.0837L50.0382 23.5323C50.6093 19.6825 49.9791 15.8523 48.4037 12.4653Z" fill="#BFC3E0"/>
<path d="M35.4071 8.35934C33.8612 7.48304 32.1972 7.0498 30.4742 7.0498C25.4723 7.0498 21.1597 10.7815 20.4606 15.7341L20.3819 16.2757C19.4366 22.9415 22.6071 29.3907 28.4557 32.7089C30.0212 33.595 31.6951 34.048 33.428 34.048C38.4397 34.048 42.7523 30.3064 43.4415 25.344L43.5203 24.7926C44.4557 18.1169 41.2754 11.6677 35.4071 8.35934Z" fill="white"/>
<path d="M37.1204 5.31691C34.9739 4.10583 32.6995 3.55444 30.4644 3.55444C24.0152 3.55444 17.9893 8.21167 16.985 15.2418L16.9062 15.7834C15.7641 23.8178 19.6533 31.7341 26.7229 35.7415L26.7327 35.7514C28.8792 36.9723 31.1733 37.5335 33.4182 37.5335C33.7432 37.5335 34.0779 37.5138 34.4029 37.4941L38.9124 50.5206C39.4145 51.9581 41.0982 52.5883 42.4176 51.8301C43.5401 51.1803 44.0521 49.8215 43.6189 48.6006L39.3161 36.1846C43.2053 34.3138 46.2084 30.6314 46.8878 25.8363L46.9665 25.2849C48.1087 17.2209 44.1998 9.3046 37.1204 5.31691ZM43.5204 24.7828L43.4416 25.3341C42.7425 30.2966 38.4398 34.0381 33.4281 34.0381C31.6853 34.0381 30.0213 33.5951 28.4558 32.6991C22.6072 29.3809 19.4367 22.9317 20.3819 16.2658L20.4607 15.7243C21.1598 10.7717 25.4724 7.03998 30.4742 7.03998C32.2072 7.03998 33.8613 7.48306 35.4072 8.34952C41.2755 11.6677 44.4558 18.1169 43.5204 24.7828Z" fill="#E1E4F4"/>
<path d="M32.6102 26.2696C32.5019 26.0826 32.3542 25.9053 32.1869 25.7576C32.0195 25.61 31.8226 25.5016 31.6158 25.4327C31.3992 25.3638 31.1924 25.3441 30.9955 25.3736C30.7986 25.4032 30.6213 25.4721 30.4638 25.5706C30.3062 25.6789 30.1782 25.8167 30.0699 26.0038C29.9616 26.1909 29.8927 26.3976 29.8632 26.6241C29.8238 26.8604 29.8336 27.0967 29.8829 27.3232C29.9321 27.5496 30.0109 27.7663 30.129 27.9533C30.2472 28.1503 30.385 28.3176 30.5622 28.4555C30.7395 28.6032 30.9266 28.7115 31.1432 28.7804C31.3499 28.8493 31.5469 28.869 31.7536 28.8395C31.9506 28.81 32.1278 28.7509 32.2853 28.6426C32.4429 28.5343 32.5709 28.3964 32.6792 28.2192C32.7875 28.042 32.8564 27.8352 32.8958 27.5989C32.9253 27.3724 32.9253 27.1361 32.8761 26.8998C32.8072 26.6733 32.7186 26.4567 32.6102 26.2696Z" fill="#BFC3E0"/>
<path d="M36.9133 17.0437C36.7951 16.5219 36.5883 16.0296 36.3028 15.5963C36.0074 15.1533 35.6431 14.7693 35.1902 14.4443C34.7373 14.1096 34.2253 13.8536 33.6542 13.6665C33.2308 13.5286 32.8271 13.4499 32.453 13.4105C32.0788 13.3809 31.7243 13.3908 31.3896 13.4302C31.0548 13.4794 30.7397 13.5582 30.4443 13.6763C30.149 13.7945 29.8634 13.9225 29.6074 14.0702L30.0899 15.4191C30.1588 15.6751 30.3163 15.8425 30.5625 15.9213C30.661 15.9508 30.7791 15.9409 30.917 15.8917C31.0548 15.8425 31.2222 15.7834 31.429 15.7342C31.6259 15.6751 31.8622 15.6456 32.1379 15.6357C32.4136 15.6259 32.7385 15.6849 33.1225 15.8031C33.3785 15.8819 33.6148 16 33.8314 16.1576C34.0382 16.3151 34.2154 16.4923 34.3533 16.6893C34.4911 16.896 34.5896 17.1126 34.6487 17.3588C34.7077 17.5951 34.7176 17.8511 34.6782 18.1169C34.6191 18.5206 34.4911 18.8456 34.304 19.0917C34.117 19.3379 33.8905 19.5446 33.6443 19.712C33.3883 19.8794 33.1225 20.0173 32.8468 20.1354C32.5613 20.2536 32.2954 20.3816 32.0493 20.5293C31.8031 20.6671 31.5865 20.8345 31.3994 21.0314C31.2123 21.2283 31.104 21.4843 31.0548 21.8093C31.045 21.8486 31.045 21.8782 31.045 21.9077C31.045 21.9373 31.045 21.9668 31.045 22.0062L30.9465 23.8769L32.6302 24.4185L33.093 22.8726C33.1619 22.6462 33.2899 22.4689 33.4868 22.3311C33.6837 22.1933 33.9102 22.0653 34.176 21.9471C34.432 21.8289 34.7176 21.6911 35.0031 21.5533C35.2985 21.4154 35.5742 21.2283 35.84 20.992C36.1059 20.7557 36.3422 20.4603 36.549 20.096C36.7557 19.7317 36.9034 19.2689 36.9822 18.7077C37.0511 18.1268 37.0314 17.5754 36.9133 17.0437Z" fill="#BFC3E0"/>
<path d="M23.7684 15.4977C23.5715 15.4977 23.3746 15.4681 23.1776 15.3894C22.2816 15.0644 21.8189 14.0897 22.134 13.1937C22.2423 12.8983 23.2367 10.2792 25.8164 9.51121C26.7321 9.23552 27.697 9.75736 27.9727 10.6731C28.2484 11.5887 27.7266 12.5537 26.801 12.8294C25.8952 13.1051 25.4029 14.3555 25.393 14.3654C25.1469 15.0644 24.4773 15.4977 23.7684 15.4977Z" fill="#F7F7FA"/>
</svg>
