<svg width="64" height="64" viewBox="0 0 64 64" fill="none" xmlns="http://www.w3.org/2000/svg">
<path d="M54.0744 51.2494L22.488 59.7171C18.2443 60.8494 13.8824 58.3386 12.7403 54.0949L4.27257 22.5085C3.14027 18.2648 5.65104 13.9029 9.89473 12.7608L41.4812 4.29308C45.7249 3.16077 50.0867 5.67154 51.2289 9.91524L59.6966 41.5017C60.8387 45.7454 58.3181 50.1072 54.0744 51.2494Z" fill="#F7F7FA"/>
<path d="M24.8411 35.6138L21.8184 41.3935L26.1211 40.271L30.1581 38.0064L24.8411 35.6138Z" fill="#BFC3E0"/>
<path d="M53.8474 17.3098L48.7077 20.244L39.6689 42.4274L46.7287 46.5234C46.8567 46.5923 46.9847 46.6317 47.1127 46.6907L46.1773 47.9314L49.0425 46.7695L49.0228 46.7597C50.0074 46.4446 50.8246 45.6077 50.9822 44.4557L54.3003 20.303C54.4283 19.2594 54.261 18.2255 53.8474 17.3098Z" fill="#BFC3E0"/>
<path d="M51.6428 14.8876L28.0218 1.25069C27.1357 0.738694 26.1412 0.768232 25.324 1.17192L22.3307 2.37316L23.7486 3.56454L20.4009 27.3824C20.0858 29.5682 21.1394 31.7147 23.0495 32.8175L25.7178 34.3633L30.3357 37.0316L39.6797 42.447L48.7184 20.2636L53.8581 17.3295C53.3855 16.3153 52.6274 15.4587 51.6428 14.8876Z" fill="#E1E4F4"/>
<path d="M24.9597 2.48141L48.5806 16.1282C50.4809 17.2309 51.4556 19.8106 51.1504 21.9866L47.911 45.6962C47.6353 47.7048 45.4101 48.7879 43.6575 47.7737L27.2637 38.2623L21.8187 41.4033L22.6458 35.594L19.9775 34.0482C18.0673 32.9454 17.0237 30.7989 17.3289 28.6131L20.7061 4.5491C21.0015 2.55033 23.2169 1.4771 24.9597 2.48141Z" fill="white"/>
<path d="M31.9014 35.1412C26.4367 32.0003 23.4632 25.8366 24.3789 19.604C25.1666 14.2674 31.0841 11.4021 35.7611 14.0803C41.0484 17.103 43.9432 23.06 43.0571 29.0957L42.9586 29.7849C42.2004 34.964 36.4503 37.7504 31.9014 35.1412Z" fill="#EBEDF7"/>
<path d="M35.288 23.0404L32.4327 21.3862L31.1133 30.7401L33.9687 32.3942L35.288 23.0404Z" fill="#BFC3E0"/>
<path d="M34.0477 21.1892C33.0139 20.5985 32.4527 19.4268 32.6201 18.2452C32.7678 17.2311 33.8902 16.6895 34.7764 17.2015C35.7807 17.7726 36.3222 18.9049 36.1548 20.0471L36.1351 20.1751C35.9973 21.1597 34.9142 21.6914 34.0477 21.1892Z" fill="#BFC3E0"/>
</svg>
