<?xml version="1.0" standalone="no"?>
<!DOCTYPE svg PUBLIC "-//W3C//DTD SVG 1.1//EN" "http://www.w3.org/Graphics/SVG/1.1/DTD/svg11.dtd" >
<svg xmlns="http://www.w3.org/2000/svg">
<metadata>Generated by IcoMoon</metadata>
<defs>
<font id="iconInventory" horiz-adv-x="1024">
<font-face units-per-em="1024" ascent="960" descent="-64" />
<missing-glyph horiz-adv-x="1024" />
<glyph unicode="&#x20;" horiz-adv-x="512" d="" />
<glyph unicode="&#xe900;" glyph-name="pointer" d="M512-2.133c-236.82 0-428.8 191.981-428.8 428.8s191.98 428.8 428.8 428.8c236.819 0 428.8-191.98 428.8-428.8s-191.981-428.8-428.8-428.8zM512-85.333c282.771 0 512 229.229 512 512s-229.229 512-512 512c-282.77 0-512-229.23-512-512s229.23-512 512-512zM512 202.667c-123.712 0-224 100.287-224 223.999s100.288 224 224 224c123.711 0 224-100.289 224-224s-100.289-223.999-224-223.999zM512 119.467c169.664 0 307.2 137.536 307.2 307.199 0 169.661-137.536 307.2-307.2 307.2-169.662 0-307.2-137.539-307.2-307.2 0-169.663 137.538-307.199 307.2-307.199zM614.399 426.668c0-56.554-45.846-102.4-102.4-102.4s-102.4 45.846-102.4 102.4c0 56.554 45.846 102.4 102.4 102.4s102.4-45.846 102.4-102.4z" />
<glyph unicode="&#xe901;" glyph-name="user-plus" d="M735.142 424.849c-19.68 9.354-39.757 17.412-60.186 24.162 66.163 49.664 109.043 128.746 109.043 217.656 0 149.98-122.016 272-272.001 272-149.982 0-272-122.020-272-272 0-89.008 42.976-168.168 109.266-217.822-60.736-19.996-117.726-51.11-167.606-92.138-91.464-75.236-155.058-180.171-179.064-295.486-7.524-36.134 1.49-73.242 24.726-101.818 23.122-28.429 57.408-44.736 94.064-44.736h492.614c22.092 0 39.997 17.907 39.997 40s-17.905 40-39.997 40h-492.614c-17.076 0-27.379 9.53-31.998 15.213-7.978 9.811-11.066 22.579-8.472 35.034 41.51 199.392 217.382 345.045 420.481 349.957 3.518-0.136 7.052-0.204 10.604-0.204 3.587 0 7.156 0.070 10.708 0.208 62.24-1.46 122.099-15.664 178.086-42.28 19.955-9.48 43.814-0.998 53.299 18.956 9.485 19.952 0.998 43.814-18.95 53.299zM521.756 474.913c-3.246 0.058-6.498 0.088-9.756 0.088-3.228 0-6.456-0.032-9.68-0.092-101.39 5.058-182.32 89.134-182.32 191.758 0 105.87 86.13 192 192 192s192.001-86.13 192.001-192c0-102.598-80.89-186.659-182.244-191.754zM984 144.664h-109.997v110.003c0 22.093-17.914 40-40 40-22.093 0-40-17.907-40-40v-110.003h-110.003c-22.093 0-40-17.907-40-40 0-22.086 17.907-40 40-40h110.003v-109.997c0-22.093 17.907-40 40-40 22.086 0 40 17.907 40 40v109.997h109.997c22.093 0 40 17.914 40 40 0 22.093-17.907 40-40 40z" />
<glyph unicode="&#xe902;" glyph-name="calendar" horiz-adv-x="853" d="M768 845.576h-42.667v93.091h-85.333v-93.091h-426.667v93.091h-85.333v-93.091h-42.667c-46.933 0-85.333-41.891-85.333-93.091v-744.728c0-51.2 38.4-93.090 85.333-93.090h682.667c46.933 0 85.333 41.89 85.333 93.090v744.728c0 51.2-38.4 93.091-85.333 93.091zM768 7.757h-682.667v605.092h682.667v-605.092z" />
<glyph unicode="&#xe903;" glyph-name="arrow-down" horiz-adv-x="1707" d="M188.020 674.448l621.578-572.474c11.616-10.742 27.448-16.64 43.733-16.64 16.294 0 32.13 5.897 43.747 16.642l621.578 572.472c11.506 10.65 17.343 24.506 17.343 38.448 0 14.669-6.49 29.228-19.065 39.991-24.233 20.71-62.401 20.077-85.76-1.533l-577.843-531.997-577.833 531.999c-23.361 21.611-61.537 22.241-85.769 1.522-24.717-21.135-25.516-56.405-1.71-78.43zM809.598 101.974l46.356 50.116-0.108 0.099-46.249-50.215zM188.020 674.448l-46.362-50.109 0.114-0.106 46.248 50.215zM897.079 101.975l-46.249 50.215-0.108-0.101 46.356-50.115zM1518.657 674.448l46.247-50.215 0.125 0.114-46.372 50.101zM1516.935 752.886l44.389 51.865-0.038 0.032-44.351-51.897zM1431.175 751.354l46.239-50.222 0.121 0.111-46.36 50.111zM189.73 752.878v0zM275.499 751.355l-46.358-50.113 0.119-0.109 46.239 50.222zM853.332 219.356l-46.239-50.222 46.239-42.571 46.239 42.571-46.239 50.222zM855.847 152.189l-621.58 572.472-92.495-100.429 621.579-572.472 92.496 100.429zM853.332 153.6c0.053 0 0.212-0.002 0.541-0.126 0.336-0.126 1.113-0.488 2.082-1.384l-92.711-100.231c25.044-23.165 57.759-34.792 90.088-34.792v136.533zM850.722 152.090c0.969 0.898 1.748 1.26 2.084 1.386 0.329 0.125 0.485 0.125 0.526 0.125v-136.533c32.329 0 65.050 11.621 90.102 34.794l-92.711 100.229zM1472.41 724.663l-621.58-572.472 92.496-100.431 621.578 572.474-92.495 100.429zM1467.733 712.895c0 5.586 2.476 9.731 4.553 11.653l92.742-100.202c25.088 23.223 39.238 55.078 39.238 88.549h-136.533zM1472.544 701.022c-2.067 1.77-4.811 5.932-4.811 11.873h136.533c0 35.279-15.725 68.561-42.943 91.855l-88.779-103.729zM1477.535 701.242c-0.874-0.809-1.657-1.203-2.089-1.369-0.212-0.080-0.353-0.113-0.422-0.126s-0.099-0.014-0.104-0.014c-0.005 0-0.027 0-0.077 0.007-0.051 0.009-0.167 0.031-0.348 0.092-0.367 0.126-1.082 0.447-1.913 1.159l88.704 103.792c-50.343 43.025-127.505 41.982-176.471-3.318l92.72-100.222zM234.095 700.991c-0.831-0.71-1.546-1.033-1.913-1.159-0.183-0.061-0.299-0.084-0.35-0.092-0.049-0.007-0.072-0.007-0.077-0.007s-0.036 0-0.104 0.014c-0.068 0.014-0.21 0.046-0.422 0.126-0.43 0.166-1.213 0.56-2.089 1.369l92.716 100.226c-48.971 45.301-126.147 46.342-176.492 3.294l88.73-103.771zM234.382 724.557c2.162-2.002 4.673-6.349 4.547-12.068-0.125-5.688-2.787-9.748-4.833-11.498l-88.73 103.771c-55.507-47.463-57.753-130.42-3.707-180.424l92.724 100.219zM899.57 169.134l577.843 531.997-92.476 100.446-577.845-531.997 92.477-100.446zM229.26 701.133l577.833-531.999 92.477 100.444-577.833 532-92.477-100.445z" />
<glyph unicode="&#xe904;" glyph-name="logout" horiz-adv-x="1365" d="M1155.925 362.671h-710.596c-33.873 0-61.334 28.655-61.334 64.001s27.461 64 61.334 64h710.596l-79.3 82.744c-23.953 24.991-23.953 65.516 0 90.51 23.945 24.995 62.78 24.995 86.741 0l183.987-191.989c1.425-1.481 2.765-3.029 4.036-4.651 0.316-0.397 0.58-0.823 0.887-1.229 0.93-1.242 1.852-2.487 2.697-3.802 0.247-0.384 0.444-0.789 0.683-1.178 0.845-1.374 1.673-2.761 2.415-4.207 0.145-0.286 0.265-0.589 0.401-0.875 0.777-1.566 1.519-3.153 2.167-4.791 0.085-0.201 0.145-0.414 0.222-0.619 0.666-1.724 1.28-3.469 1.809-5.265 0.068-0.226 0.102-0.461 0.162-0.691 0.495-1.762 0.947-3.541 1.297-5.363 0.102-0.542 0.145-1.101 0.239-1.647 0.256-1.51 0.512-3.021 0.657-4.561 0.205-2.112 0.307-4.245 0.307-6.387s-0.102-4.275-0.307-6.391c-0.145-1.562-0.41-3.085-0.657-4.608-0.094-0.529-0.137-1.071-0.239-1.596-0.35-1.839-0.802-3.635-1.297-5.414-0.060-0.209-0.102-0.432-0.162-0.641-0.529-1.805-1.143-3.567-1.818-5.308-0.077-0.188-0.128-0.388-0.205-0.576-0.657-1.651-1.399-3.247-2.185-4.821-0.137-0.277-0.247-0.567-0.393-0.845-0.751-1.455-1.579-2.854-2.432-4.241-0.23-0.375-0.427-0.772-0.666-1.139-0.845-1.318-1.775-2.573-2.705-3.819-0.299-0.401-0.563-0.823-0.87-1.216-1.28-1.617-2.62-3.17-4.036-4.651l-183.996-191.989c-11.972-12.501-27.674-18.748-43.366-18.748-15.701 0-31.394 6.246-43.375 18.748-23.953 24.994-23.953 65.516 0 90.51l79.3 82.744zM507.037 938.672c169.193 0 326.608-84.757 421.091-226.719 19.098-28.688 11.537-67.578-16.87-86.861-28.416-19.278-66.922-11.658-86.021 17.038-71.41 107.302-190.362 171.363-318.199 171.363-211.222-0.004-383.067-173.529-383.067-386.824s171.845-386.819 383.067-386.819c127.461 0 246.219 63.771 317.682 170.586 19.17 28.646 57.687 36.174 86.060 16.824 28.365-19.353 35.831-58.26 16.666-86.902-94.552-141.323-251.711-225.692-420.408-225.692-279.578 0-507.036 229.681-507.036 512.003s227.458 512.003 507.036 512.003z" />
<glyph unicode="&#xe905;" glyph-name="marker" horiz-adv-x="768" d="M370.090 938.667c-204.751 0-370.090-165.338-370.090-370.090 0-71.39 22.805-139.558 54.534-195.577l241.191-417.431c15.121-27.27 45.61-40.902 74.365-40.902s57.757 13.632 74.365 40.902l241.19 417.183c31.974 56.024 54.534 122.953 54.534 195.583 0 204.746-165.338 370.332-370.090 370.332zM370.090 459.261c-74.365 0-135.096 60.732-135.096 135.096s60.732 135.096 135.096 135.096c74.365 0 135.096-60.732 135.096-135.096 0-74.612-60.732-135.096-135.096-135.096z" />
<glyph unicode="&#xe906;" glyph-name="phone" horiz-adv-x="768" d="M224.694 920.238c-9.96 10.447-23.54 17.004-38.17 18.429h-7.775c-51.581-18.995-96.069-52.507-127.701-96.196s-48.953-95.544-49.717-148.847c-22.619-210.232 248.104-664.141 445.315-746.733 46.308-20.755 96.681-31.693 147.732-32.083 59.3-2.054 117.105 18.266 161.163 56.653 5.523 6.336 9.37 13.862 11.219 21.952 1.843 8.083 1.632 16.48-0.621 24.467l-128.644 182.246c-10.603 17.747-20.499 17.747-24.033 17.747-6.816-0.365-13.407-2.49-19.085-6.144l-98.252-53.926c-4.616-2.208-9.692-3.379-14.844-3.411-72.805 0-224.778 245.043-267.896 365.859-20.499 55.971-20.499 89.417 0 104.434l100.372 58.701c7.263 4.649 12.536 11.681 14.844 19.795 1.54 3.329 2.336 6.934 2.336 10.58s-0.796 7.251-2.336 10.58z" />
<glyph unicode="&#xe907;" glyph-name="edit" d="M171.388 256l-0.721-140.42c0-7.923 2.886-15.842 8.66-21.606 5.773-5.76 12.989-8.64 20.928-8.64l139.997 0.721c7.938 0 15.154 2.88 20.928 8.64l483.494 482.476c11.55 11.522 11.55 30.245 0 42.487l-138.551 139.702c-11.546 11.522-30.31 11.522-42.577 0l-96.7-97.215-386.796-385.258c-5.051-5.764-8.66-12.962-8.66-20.885zM231.284 243.038l356.488 355.736 97.421-97.214-356.488-355.017-98.142-0.721z" />
<glyph unicode="&#xe908;" glyph-name="close" d="M42.666 896c23.564 23.564 61.769 23.564 85.333 0l853.332-853.333c23.565-23.565 23.565-61.766 0-85.331s-61.766-23.565-85.331 0l-853.334 853.331c-23.564 23.564-23.564 61.77 0 85.333zM981.331 895.998c23.565-23.564 23.565-61.769 0-85.333l-853.329-853.329c-23.564-23.565-61.769-23.565-85.333 0-23.564 23.558-23.564 61.766 0 85.331l853.331 853.331c23.565 23.564 61.773 23.564 85.331 0z" />
<glyph unicode="&#xe909;" glyph-name="delete" d="M786.125 662.588h-143.616v33.603c0 39.599-32.209 71.808-71.808 71.808h-159.511c-39.599 0-71.808-32.209-71.808-71.808v-33.603h-143.616c-13.804 0-25.098-11.294-25.098-25.098s11.294-25.098 25.098-25.098h38.205v-439.494c0-48.243 39.181-87.565 87.564-87.565h338.963c48.243 0 87.565 39.181 87.565 87.565v359.18c0 13.804-11.294 25.098-25.101 25.098-13.803 0-25.097-11.294-25.097-25.098v-359.18c0-20.638-16.73-37.367-37.367-37.367h-339.103c-20.636 0-37.368 16.73-37.368 37.367v439.494h501.962c13.943 0 25.237 11.294 25.237 25.098s-11.294 25.098-25.101 25.098zM592.452 662.588h-202.875v33.603c0 11.852 9.621 21.612 21.612 21.612h159.652c11.853 0 21.611-9.621 21.611-21.612zM490.948 557.167c-13.807 0-25.101-11.294-25.101-25.098v-316.235c0-13.803 11.294-25.097 25.101-25.097 13.803 0 25.097 11.294 25.097 25.097v316.235c0 13.804-11.294 25.098-25.097 25.098zM385.536 557.167c-13.804 0-25.098-11.294-25.098-25.098v-316.235c0-13.803 11.294-25.097 25.098-25.097s25.098 11.294 25.098 25.097v316.235c0 13.804-11.294 25.098-25.098 25.098zM596.361 557.167c-13.807 0-25.101-11.294-25.101-25.098v-316.235c0-13.803 11.294-25.097 25.101-25.097 13.803 0 25.097 11.294 25.097 25.097v316.235c0 13.804-11.294 25.098-25.097 25.098z" />
<glyph unicode="&#xe90a;" glyph-name="check" horiz-adv-x="1479" d="M1447.606 908.987c42.007-39.574 42.007-103.736 0-143.309l-903.391-851.011-512.708 482.981c-42.009 39.574-42.009 103.736 0 143.31 42.009 39.573 110.12 39.573 152.129 0l360.579-339.673 751.259 707.702c42.007 39.574 110.126 39.574 152.132 0z" />
<glyph unicode="&#xe90b;" glyph-name="close-light" d="M184.32 754.341v0c7.54 7.54 19.766 7.54 27.307 0l628.050-628.050c7.54-7.54 7.54-19.766 0-27.307v0c-7.54-7.54-19.766-7.54-27.307 0l-628.050 628.050c-7.54 7.54-7.54 19.766 0 27.307zM839.697 754.347v0c7.54-7.54 7.54-19.766 0-27.307l-628.050-628.050c-7.54-7.54-19.766-7.54-27.307 0v0c-7.54 7.54-7.54 19.766 0 27.307l628.050 628.050c7.54 7.54 19.766 7.54 27.307 0z" />
<glyph unicode="&#xe90c;" glyph-name="address" d="M921.6 482.522l-344.436 344.436c-37.236 37.236-93.091 37.236-130.327 0l-344.436-344.436c-37.236-37.236-37.236-93.091 0-130.327l344.436-344.436c37.236-37.236 93.091-37.236 130.327 0l344.436 344.436c37.236 32.582 37.236 93.091 0 130.327zM693.527 473.212l-74.473-74.473c-4.655-4.655-9.309-4.655-13.964-4.655s-9.309 4.655-9.309 9.309v37.236h-125.673c-13.964 0-23.273-9.309-23.273-23.273v-107.055c0-4.655-4.655-13.964-13.964-13.964h-46.545c-4.655 0-13.964 4.655-13.964 13.964v107.055c0 55.855 46.545 102.4 102.4 102.4h125.673v37.236c-4.655 4.655 0 9.309 4.655 9.309s9.309 0 13.964-4.655l74.473-74.473c4.655 0 4.655-9.309 0-13.964z" />
<glyph unicode="&#xe90d;" glyph-name="watchlist" d="M1011.2 36.267l-428.8 806.4c-32 57.6-108.8 57.6-140.8 0l-428.8-806.4c-32-57.6 6.4-121.6 70.4-121.6h864c57.6 0 96 64 64 121.6zM512 561.067c38.4 0 64-32 64-64 0-38.4-32-64-64-64s-64 32-64 64c0 38.4 32 64 64 64zM576 164.267c0-32-25.6-57.6-64-57.6s-64 25.6-64 51.2v153.6c0 32 32 51.2 64 51.2s64-25.6 64-51.2v-147.2z" />
<glyph unicode="&#xe90e;" glyph-name="exit" horiz-adv-x="1088" d="M512.001-0.002h-384.002c-23.553 0-42.666 19.117-42.666 42.669v767.999c0 23.552 19.116 42.666 42.666 42.666h384.002c23.594 0 42.666 19.071 42.666 42.666s-19.071 42.67-42.666 42.67h-384.002c-70.571 0-127.999-57.431-127.999-128.001v-767.999c0-70.573 57.429-128 127.999-128h384.002c23.594 0 42.666 19.072 42.666 42.669 0 23.59-19.071 42.662-42.666 42.662zM1014.707 457.039l-259.411 256c-16.73 16.556-43.776 16.34-60.333-0.427-16.55-16.768-16.384-43.775 0.429-60.331l185.389-182.954h-496.771c-23.594 0-42.666-19.071-42.666-42.666s19.071-42.668 42.666-42.668h496.771l-185.389-182.953c-16.813-16.557-16.941-43.565-0.429-60.333 8.365-8.448 19.373-12.71 30.381-12.71 10.835 0 21.67 4.096 29.952 12.288l259.411 255.999c8.109 8.020 12.717 18.945 12.717 30.379 0 11.43-4.563 22.31-12.717 30.375z" />
<glyph unicode="&#xe90f;" glyph-name="close-circle" d="M671.902 296.935l-129.732 129.732 129.732 129.731c9.050 9.051 9.050 21.119 0 30.17-9.054 9.051-21.12 9.051-30.17 0l-129.732-129.731-129.731 129.731c-9.051 9.051-21.119 9.051-30.17 0s-9.051-21.119 0-30.17l129.731-129.731-129.731-129.732c-9.051-9.050-9.051-21.116 0-30.17 9.051-9.050 21.119-9.050 30.17 0l129.731 129.732 129.732-129.732c9.050-9.050 21.116-9.050 30.17 0 9.050 9.054 9.050 21.12 0 30.17zM512-85.333c-281.6 0-512 230.4-512 512s230.4 512 512 512c281.6 0 512-230.4 512-512s-230.4-512-512-512zM512 896c-260.267 0-469.333-209.067-469.333-469.333s209.067-469.333 469.333-469.333c260.267 0 469.333 209.067 469.333 469.333s-209.067 469.333-469.333 469.333z" />
<glyph unicode="&#xe910;" glyph-name="arrow-next" horiz-adv-x="1303" d="M1284.655 445.285c0 9.309 0 18.618-9.309 27.927 0 9.309-9.309 18.618-18.618 18.618l-400.291 400.291c-18.618 27.927-65.164 27.927-93.091 0s-27.927-74.473 0-102.4l279.273-279.273h-949.527c-37.236 0-74.473-27.927-74.473-74.473s37.236-55.855 74.473-55.855h949.527l-279.273-279.273c-27.927-27.927-27.927-74.473 0-102.4 9.309-9.309 27.927-18.618 46.545-18.618s37.236 9.309 46.545 18.618l400.291 400.291c9.309 9.309 9.309 18.618 18.618 18.618 0 9.309 9.309 18.618 9.309 27.927z" />
<glyph unicode="&#xe911;" glyph-name="question" d="M460.8 341.334c0 21.333 4.267 42.667 8.533 55.467s17.067 25.6 29.867 42.667c17.067 12.8 25.6 25.6 29.867 34.133s8.533 17.067 8.533 25.6c0 29.867-12.8 42.667-38.4 42.667-12.8 0-21.333-4.267-29.867-12.8s-12.8-17.067-12.8-29.867h-72.533c0 29.867 8.533 55.467 29.867 76.8 21.333 12.8 46.933 21.333 85.333 21.333 34.133 0 64-8.533 81.067-25.6 21.333-17.067 29.867-42.667 29.867-72.533 0-12.8-4.267-25.6-8.533-38.4s-17.067-25.6-34.133-42.667l-21.333-21.333c-12.8-12.8-21.333-25.6-21.333-42.667v-17.067h-64zM452.267 264.534c0 12.8 4.267 21.333 12.8 25.6 8.533 8.533 17.067 12.8 29.867 12.8s21.333-4.267 29.867-12.8c8.533-8.533 12.8-17.067 12.8-25.6 0-12.8-4.267-21.333-12.8-25.6-8.533-8.533-17.067-12.8-29.867-12.8s-21.333 4.267-29.867 12.8c-8.533 4.267-12.8 12.8-12.8 25.6z" />
<glyph unicode="&#xe912;" glyph-name="proteccion-inicial" d="M836.267 733.867c-8.533 8.533-17.067 17.067-29.867 17.067-89.6 38.4-187.733 81.067-294.4 81.067-98.133 0-192-38.4-277.333-68.267l-25.6-8.533c-8.533-4.267-17.067-8.533-25.6-17.067-4.267-12.8-8.533-21.333-8.533-34.133v-277.333c0-4.267 4.267-136.533 98.133-256 46.933-64 166.4-153.6 238.933-153.6 76.8 0 196.267 89.6 243.2 153.6 89.6 119.467 93.867 251.733 93.867 256v273.067c0 12.8-4.267 25.6-12.8 34.133zM716.8 200.534c-42.667-55.467-153.6-136.533-209.067-136.533-51.2 0-153.6 76.8-200.533 136.533-85.333 106.667-89.6 226.133-89.6 226.133v277.333c0 0 0 4.267 0 4.267s4.267 4.267 4.267 4.267l21.333 8.533c85.333 34.133 170.667 68.267 260.267 68.267 0 0 0 0 0 0 98.133 0 192-38.4 277.333-76.8 0 0 4.267 0 4.267 0 4.267 0 4.267 0 8.533-4.267v-277.333c8.533-4.267 4.267-123.733-76.8-230.4zM529.067 469.334c-46.933 8.533-68.267 46.933-64 76.8 4.267 12.8 8.533 51.2 64 51.2 4.267 0 12.8 0 17.067 0s8.533-4.267 12.8-8.533c4.267-4.267 8.533-8.533 8.533-12.8 4.267-4.267 4.267-8.533 4.267-17.067 0-12.8 8.533-25.6 21.333-25.6s25.6 8.533 25.6 21.333c0 12.8-4.267 25.6-8.533 34.133-4.267 12.8-12.8 21.333-21.333 29.867s-17.067 17.067-29.867 21.333c-8.533 4.267-12.8 4.267-21.333 4.267v38.4c0 12.8-8.533 21.333-21.333 21.333s-25.6-8.533-25.6-21.333v-42.667c-42.667-12.8-68.267-46.933-68.267-85.333-4.267-51.2 25.6-115.2 102.4-128 46.933-8.533 68.267-46.933 64-76.8 0-12.8-8.533-46.933-59.733-46.933-59.733 0-64 34.133-64 38.4 0 12.8-8.533 21.333-21.333 21.333s-21.333-8.533-21.333-21.333c0-25.6 17.067-68.267 76.8-81.067v-42.667c0-12.8 8.533-21.333 21.333-21.333s21.333 8.533 21.333 21.333v38.4c59.733 4.267 89.6 46.933 93.867 89.6 0 51.2-34.133 110.933-106.667 123.733z" />
<glyph unicode="&#xe916;" glyph-name="jubilacion-padres" d="M290.133 332.8c4.267 0 8.533 0 12.8 0 12.8 0 25.6 0 38.4 4.267 17.067 4.267 29.867 12.8 42.667 25.6s21.333 25.6 29.867 38.4c8.533 17.067 8.533 29.867 8.533 46.933v38.4c0 17.067-4.267 34.133-8.533 46.933-12.8 17.067-21.333 29.867-34.133 42.667s-25.6 21.333-42.667 25.6c-12.8 4.267-29.867 4.267-46.933 4.267-29.867-4.267-59.733-17.067-76.8-42.667-21.333-21.333-29.867-51.2-29.867-81.067v-25.6c0-29.867 8.533-59.733 29.867-81.067 17.067-25.6 46.933-38.4 76.8-42.667zM230.4 482.134c0 17.067 4.267 34.133 17.067 51.2 12.8 12.8 29.867 21.333 46.933 25.6 0 0 4.267 0 4.267 0 8.533 0 17.067 0 21.333-4.267 12.8-4.267 21.333-8.533 29.867-12.8 8.533-8.533 12.8-12.8 17.067-25.6 4.267-8.533 4.267-17.067 4.267-29.867v-38.4c0 0 0 0 0 0 0-8.533 0-21.333-4.267-29.867s-8.533-17.067-17.067-25.6c-8.533 0-17.067-4.267-25.6-8.533s-21.333-4.267-29.867-4.267c-17.067 4.267-34.133 12.8-46.933 25.6s-17.067 29.867-17.067 51.2v25.6zM413.867 298.667c-12.8 4.267-29.867 8.533-42.667 4.267-17.067-4.267-29.867-12.8-38.4-21.333l-34.133-38.4-29.867 38.4c-8.533 12.8-21.333 21.333-38.4 25.6-12.8 4.267-29.867 4.267-42.667-4.267-46.933-21.333-85.333-51.2-115.2-93.867-29.867-38.4-46.933-89.6-51.2-136.533 0-8.533 0-12.8 4.267-21.333 0-4.267 4.267-12.8 8.533-17.067s8.533-8.533 17.067-12.8c4.267-4.267 12.8-4.267 21.333-4.267h469.333c8.533 0 12.8 0 17.067 4.267s12.8 8.533 17.067 12.8c4.267 4.267 8.533 8.533 8.533 17.067s4.267 12.8 0 21.333c-4.267 51.2-21.333 98.133-51.2 136.533-34.133 38.4-72.533 72.533-119.467 89.6zM64 64c4.267 42.667 21.333 81.067 42.667 115.2 29.867 34.133 59.733 59.733 98.133 76.8 4.267 0 4.267 0 8.533 0 0 0 4.267 0 4.267 0 4.267 0 8.533-4.267 12.8-8.533l34.133-34.133c4.267-4.267 8.533-8.533 17.067-12.8 12.8-4.267 25.6-4.267 38.4 0 4.267 4.267 12.8 8.533 17.067 12.8l29.867 38.4c0 0 0 0 0 0 4.267 0 8.533 4.267 12.8 4.267s8.533 0 12.8 0c38.4-17.067 72.533-42.667 98.133-76.8s38.4-72.533 42.667-115.2h-469.333zM640 537.6c8.533-8.533 21.333-17.067 29.867-21.333 12.8-4.267 21.333-8.533 34.133-8.533 0 0 0 0 0 0h140.8c12.8 0 25.6 4.267 34.133 8.533 12.8 4.267 21.333 12.8 29.867 21.333s17.067 17.067 21.333 29.867c4.267 12.8 8.533 25.6 8.533 34.133 0 4.267-4.267 12.8-8.533 17.067s-8.533 4.267-17.067 8.533c-4.267 0-4.267 0-8.533 0s-4.267 4.267-8.533 4.267c4.267 4.267 0 8.533 0 8.533 0 4.267 0 4.267 0 8.533v46.933c0 29.867-12.8 59.733-34.133 85.333-42.667 42.667-123.733 42.667-166.4 0-21.333-21.333-34.133-51.2-34.133-85.333v-46.933c0-4.267-4.267-12.8-8.533-17.067s-8.533-8.533-17.067-8.533c-12.8 0-21.333-8.533-21.333-21.333s4.267-25.6 8.533-38.4c0-8.533 8.533-17.067 17.067-25.6zM682.667 601.6c12.8 12.8 21.333 29.867 21.333 51.2v42.667c0 17.067 8.533 38.4 21.333 51.2 25.6 25.6 72.533 25.6 98.133 0 12.8-12.8 21.333-29.867 21.333-51.2v-46.933c0-8.533 0-17.067 4.267-25.6s8.533-17.067 17.067-21.333c8.533-8.533 12.8-12.8 21.333-17.067-4.267-4.267-4.267-12.8-8.533-17.067s-8.533-8.533-17.067-8.533c0 0-8.533-4.267-12.8-4.267 0 0 0 0 0 0h-140.8c-8.533 0-12.8 0-17.067 4.267s-12.8 4.267-17.067 8.533c-4.267 4.267-8.533 8.533-8.533 17.067 0 0 0 0 0 0 4.267 4.267 12.8 8.533 17.067 17.067zM1002.667 285.867l-12.8 51.2c-8.533 34.133-29.867 68.267-59.733 89.6s-64 34.133-102.4 34.133c0 0 0 0 0 0-4.267 0-4.267 0-8.533 0l-46.933-21.333-46.933 21.333c-4.267 0-8.533 0-8.533 0-38.4 0-72.533-12.8-102.4-34.133s-51.2-55.467-59.733-89.6l-12.8-51.2c0-8.533 0-12.8 0-21.333s4.267-12.8 8.533-21.333c4.267-4.267 8.533-8.533 17.067-12.8 4.267-4.267 12.8-4.267 21.333-4.267 0 0 0 0 0 0h362.667c8.533 0 12.8 0 21.333 4.267s12.8 8.533 17.067 12.8c4.267 4.267 8.533 12.8 8.533 21.333 8.533 4.267 8.533 12.8 4.267 21.333zM955.733 273.067c0 0 0 0 0 0h-362.667l12.8 51.2c4.267 25.6 21.333 46.933 42.667 64s42.667 25.6 68.267 25.6l51.2-21.333c4.267-4.267 12.8-4.267 17.067 0l51.2 21.333c25.6 0 46.933-8.533 68.267-25.6s34.133-38.4 42.667-64l8.533-51.2c0 0 0 0 0 0z" />
<glyph unicode="&#xe91c;" glyph-name="check2" d="M979.285 872.015c-46.208 24.881-97.748-23.104-127.961-51.54-69.309-67.535-127.958-145.733-193.718-216.822-72.867-78.198-140.401-156.397-215.045-232.82-42.654-42.654-88.862-88.862-117.297-142.179-63.98 62.206-119.075 129.741-190.164 184.832-51.54 39.099-136.847 67.535-135.070-26.658 3.554-122.632 111.966-254.147 191.941-337.674 33.767-35.545 78.198-72.867 129.738-74.644 62.203-3.554 126.184 71.089 163.505 111.966 65.761 71.089 119.078 151.068 179.501 223.931 78.198 95.971 158.174 190.167 234.595 287.915 47.985 60.426 199.050 209.716 79.975 273.694zM78.224 393.936c-1.777 0-3.554 0-7.109-1.774-7.109 1.774-12.441 3.554-19.55 7.109v0c5.332 3.554 14.218 1.777 26.658-5.335z" />
<glyph unicode="&#xe91d;" glyph-name="refresh" d="M877.714 938.667c-20.199 0-36.572-16.374-36.572-36.572v-133.594c-188.284 182.286-488.689 177.422-670.975-10.86-85.907-88.734-133.832-207.467-133.594-330.973 0-20.199 16.374-36.572 36.572-36.572s36.57 16.374 36.57 36.572c0.045 222.176 180.188 402.25 402.366 402.205 112.836-0.021 220.474-47.432 296.661-130.663l-162.011-54.015c-19.187-6.384-29.569-27.111-23.186-46.299s27.111-29.569 46.299-23.186l219.428 73.142c14.979 4.989 25.065 19.029 25.016 34.815v219.428c-0.002 20.196-16.376 36.57-36.574 36.57zM950.856 463.238c-20.199 0-36.572-16.374-36.572-36.572-0.045-222.176-180.188-402.25-402.366-402.205-112.836 0.021-220.474 47.432-296.661 130.663l162.011 54.015c19.187 6.384 29.569 27.111 23.186 46.299s-27.111 29.569-46.299 23.186l-219.428-73.142c-14.979-4.989-25.065-19.029-25.016-34.815v-219.428c0-20.199 16.374-36.572 36.572-36.572s36.572 16.374 36.572 36.572v133.596c188.284-182.286 488.691-177.424 670.975 10.86 85.907 88.734 133.832 207.467 133.594 330.973 0.004 20.199-16.369 36.572-36.568 36.572z" />
<glyph unicode="&#xe923;" glyph-name="star2" d="M236.8-85.32c-12.8 0-25.6 6.4-38.4 12.8-19.2 12.8-32 38.4-25.6 70.4l44.8 268.8c0 12.8-6.4 19.2-6.4 25.6l-185.6 192c-25.6 19.2-32 44.8-19.2 70.4 6.4 25.6 25.6 44.8 51.2 44.8l262.4 38.4c6.4 0 19.2 6.4 19.2 12.8l115.2 243.2c25.6 44.8 96 44.8 121.6 0l115.2-243.2c0-6.4 6.4-12.8 19.2-19.2l262.4-38.4c25.6-6.4 44.8-19.2 51.2-44.8s0-51.2-19.2-70.4l-185.6-192c-12.8-6.4-12.8-19.2-6.4-25.6l44.8-268.8c6.4-25.6-6.4-51.2-25.6-70.4-19.2-12.8-44.8-19.2-70.4-6.4l-236.8 128c-6.4 0-12.8 0-25.6 0l-230.4-128c-12.8 0-25.6 0-32 0zM512 874.679l-115.2-249.6c-12.8-25.6-38.4-44.8-70.4-51.2l-262.4-38.4v-6.4l185.6-192c19.2-25.6 32-51.2 25.6-76.8l-44.8-268.8v-6.4l230.4 128c25.6 12.8 57.6 12.8 83.2 0h6.4l230.4-128v6.4l-44.8 268.8c-6.4 32 6.4 64 25.6 83.2l198.4 185.6v12.8l-256 38.4c-38.4 0-64 19.2-76.8 51.2l-115.2 243.2z" />
<glyph unicode="&#xe924;" glyph-name="star" d="M524.589 50.513l232.505-127.654c48.698-26.752 105.907 17.018 96.173 72.947l-43.827 269.907c-1.216 9.728 1.222 19.456 8.525 25.536l186.246 190.88c38.957 40.122 17.043 109.423-36.518 117.934l-259.29 38.906c-9.734 1.215-17.043 7.295-20.691 15.805l-115.647 245.594c-24.346 51.064-94.951 51.064-119.297 0l-115.645-245.594c-3.652-8.511-12.173-14.59-20.694-15.805l-259.29-38.906c-54.779-8.511-76.691-77.812-36.52-117.934l187.467-190.88c6.086-7.296 9.739-17.024 8.522-25.536l-46.259-269.907c-9.738-57.146 47.476-99.699 96.168-72.947l232.508 127.654c7.304 3.648 17.043 3.648 25.564 0z" />
<glyph unicode="&#xe925;" glyph-name="wifi" horiz-adv-x="1303" d="M660.257 901.394c-224.344 0-437.174-88.108-600.589-247.822-15.853-15.495-16.216-40.901-0.842-56.872l90.692-94.296c14.333-14.881 38.178-15.503 53.067-1.179 124.947 120.522 287.236 187.119 457.108 187.119s332.446-66.597 457.114-187.119c14.885-14.324 38.73-13.702 53.066 1.179l90.689 94.296c15.374 15.971 15.011 41.377-0.842 56.872-162.849 159.714-375.962 247.822-599.464 247.822zM1056.973 428.72c-108.944 103.433-249.614 160.305-396.181 160.305h-24.655c-0.205 0-0.391-0.117-0.479-0.302-0.084-0.177-0.261-0.293-0.456-0.302-138.026-5.966-269.308-62.238-371.995-159.702-16.25-15.43-16.662-41.314-1.123-57.46l91.815-95.474c14.12-14.657 37.516-15.532 52.506-1.769 71.036 65.42 161.166 101.665 253.545 101.665 92.937 0 183.068-36.245 254.106-101.665 14.988-13.763 38.386-12.888 52.503 1.769l91.816 95.474c15.597 16.207 14.978 42.054-1.401 57.46zM633.311-13.634c14.825-15.234 39.452-15.309 54.193 0l148.252 153.823c16.161 16.798 14.871 43.739-2.807 58.936-43.241 33.592-90.973 58.931-172.684 58.931-81.427 0-126.068-27.699-172.679-58.931-17.557-15.225-18.632-42.189-2.527-58.936l148.252-153.823z" />
<glyph unicode="&#xe926;" glyph-name="search" d="M990.966 79.838l-176.169 187.182c44.042 66.063 66.063 143.14 66.063 231.226 0 242.237-198.195 440.43-440.43 440.43-242.236 0-440.43-198.193-440.43-440.43 0-242.239 198.194-440.429 440.43-440.429 88.087 0 165.164 22.021 231.227 66.063l187.182-187.182c22.021-11.013 44.042-22.021 66.063-22.021s44.042 11.008 66.063 33.029c44.047 33.034 44.047 99.098 0 132.132zM440.43 167.923c-187.183 0-330.322 143.14-330.322 330.323s143.14 330.323 330.322 330.323c187.185 0 330.324-143.14 330.324-330.323s-143.14-330.323-330.324-330.323z" />
<glyph unicode="&#xe927;" glyph-name="children" horiz-adv-x="1170" d="M331.192 265.105c24.92 0 45.12 20.201 45.12 45.12s-20.201 45.12-45.12 45.12c-24.919 0-45.12-20.201-45.12-45.12s20.201-45.12 45.12-45.12zM805.12 265.105c24.92 0 45.122 20.201 45.122 45.12s-20.202 45.12-45.122 45.12c-24.92 0-45.122-20.201-45.122-45.12s20.202-45.12 45.122-45.12zM1136.347 329.403c0 65.358-47.375 119.821-109.583 130.951v19.722c0 252.869-205.722 458.591-458.59 458.591s-458.591-205.722-458.591-458.591v-19.722c-62.208-11.133-109.583-65.596-109.583-130.951 0-65.922 48.191-120.769 111.189-131.242 8.867-101.040 55.094-175.667 137.822-222.113 73.571-41.304 177.966-61.381 319.164-61.381 141.195 0 245.591 20.078 319.165 61.381 82.725 46.446 128.951 121.073 137.816 222.113 62.998 10.47 111.192 65.319 111.192 131.242zM46.976 329.403c0 39.328 26.518 72.558 62.604 82.81v-165.62c-36.086 10.25-62.604 43.479-62.604 82.809zM979.785 235.129c0-103.154-37.764-174.505-115.441-218.12-66.363-37.259-163.242-55.369-296.169-55.369s-229.807 18.11-296.166 55.369c-77.686 43.615-115.449 114.966-115.449 218.12v244.947c0 185.875 123.855 343.338 293.359 394.275 129.134-1.632 197.906-94.85 197.906-162.349 0-51.697-42.058-93.759-93.758-93.759-38.766 0-70.308 31.542-70.308 70.309 0 28.423 23.123 51.55 51.55 51.55 12.971 0 23.488 10.516 23.488 23.488s-10.516 23.488-23.488 23.488c-54.328 0-98.526-44.199-98.526-98.526 0-64.671 52.613-117.285 117.284-117.285 77.602 0 140.734 63.133 140.734 140.735 0 48.752-24.495 101.203-65.523 140.311-16.412 15.643-35.085 28.794-55.461 39.305 224.369-3.036 405.968-186.465 405.968-411.542v-244.947zM1026.765 246.591v165.62c36.089-10.252 62.603-43.482 62.603-82.81s-26.522-72.557-62.603-82.809zM658.988 245.583c-50.085-50.091-131.591-50.091-181.677 0-9.175 9.172-24.043 9.172-33.218 0-9.172-9.172-9.172-24.046 0-33.218 34.202-34.201 79.131-51.302 124.058-51.302s89.853 17.101 124.058 51.302c9.172 9.172 9.172 24.046 0 33.218-9.178 9.172-24.046 9.172-33.221 0z" />
<glyph unicode="&#xe928;" glyph-name="birthday" d="M1024.014 264.12v141.28c-0.041 43.33-35.724 78.442-79.756 78.488h-63.809v156.977c0 8.669-7.148 15.698-15.954 15.698h-95.717c-8.806 0-15.954-7.029-15.954-15.698v-156.977h-143.568v188.373c0 8.669-7.143 15.697-15.953 15.697h-95.713c-8.81 0-15.953-7.029-15.953-15.697v-188.373h-143.571v156.977c0 8.669-7.143 15.698-15.952 15.698h-95.714c-8.81 0-15.953-7.029-15.953-15.698v-156.977h-63.809c-44.025-0.046-79.707-35.159-79.762-78.488v-141.28c-0.545-33.686 17.868-64.924 47.857-81.185v-169.977h-31.904c-8.81 0-15.952-7.031-15.952-15.701 0-8.663 7.142-15.695 15.952-15.695h925.236c8.806 0 15.947 7.031 15.947 15.695 0 8.67-7.141 15.701-15.947 15.701h-31.908v169.738c29.532 16.848 47.746 47.841 47.855 81.424zM784.732 625.168h63.809v-141.28h-63.809v141.28zM513.543 656.563h63.81v-172.675h-63.81v172.675zM242.353 625.168h63.81v-141.28h-63.81v141.28zM98.783 405.4c0 26.014 21.428 47.093 47.857 47.093h797.617c26.433 0 47.855-21.079 47.855-47.093v-141.28c-0.055-24.934-15.012-47.496-38.175-57.606-24.119-10.001-51.971-4.854-70.758 13.073-11.981 11.824-18.691 27.846-18.685 44.533v62.791c-0.082 23.708-13.749 45.33-35.314 55.885l-0.976 0.521c-2.553 1.189-5.188 2.2-7.885 3.028-1.591 0.522-3.045 1.035-4.628 1.41-2.034 0.46-4.103 0.821-6.178 1.073-1.406 0.199-2.744 0.613-4.171 0.72-0.765 0-1.495-0.107-2.246-0.076s-1.577 0.23-2.41 0.23c-1.768 0-3.475-0.36-5.229-0.498-1.761-0.145-3.618-0.222-5.414-0.521-2.758-0.506-5.482-1.196-8.144-2.054-1.44-0.437-2.908-0.752-4.308-1.288-2.976-1.188-5.85-2.606-8.602-4.239-1.004-0.567-2.068-0.973-3.058-1.571-3.727-2.376-7.195-5.128-10.336-8.209-12.022-11.743-18.76-27.739-18.719-44.411v-31.395c0-34.676-28.563-62.794-63.811-62.794-35.239 0-63.81 28.118-63.81 62.794v31.395c-0.078 23.708-13.748 45.33-35.316 55.885l-0.973 0.521c-2.555 1.189-5.188 2.2-7.883 3.028-1.589 0.522-3.045 1.035-4.627 1.41-2.040 0.46-4.105 0.821-6.184 1.073-1.402 0.199-2.742 0.613-4.167 0.72-0.764 0-1.496-0.107-2.244-0.076-0.755 0.031-1.581 0.23-2.415 0.23-1.768 0-3.473-0.36-5.226-0.498-1.76-0.145-3.622-0.222-5.414-0.521-2.749-0.506-5.467-1.196-8.132-2.054-1.456-0.437-2.92-0.752-4.323-1.288-2.96-1.188-5.827-2.598-8.568-4.223-1.021-0.567-2.103-0.989-3.092-1.571-3.723-2.368-7.189-5.112-10.336-8.194-12.027-11.75-18.764-27.762-18.717-44.441v-94.19c0-34.673-28.563-62.785-63.81-62.785-35.238 0-63.809 28.112-63.809 62.785v94.19c-0.078 23.708-13.748 45.33-35.316 55.885l-0.973 0.521c-2.555 1.189-5.188 2.2-7.883 3.028-1.589 0.522-3.045 1.035-4.627 1.41-2.040 0.46-4.105 0.821-6.184 1.073-1.402 0.199-2.742 0.613-4.168 0.72-1.417 0.108-3.061 0.154-4.658 0.154-35.238 0-63.809-28.107-63.809-62.791v-62.791c0.023-16.632-6.644-32.6-18.554-44.403-15.812-14.978-38.159-21.217-59.61-16.637-3.817 0.792-7.556 1.925-11.162 3.4-7.291 3.168-13.935 7.605-19.606 13.107-11.979 11.824-18.694 27.846-18.686 44.533v141.28zM146.64 12.957v158.276c1.597-0.259 3.194-0.328 4.79-0.512l1.223-0.13c13.958-1.42 28.064 0.191 41.322 4.717 4.050 1.399 8.008 3.072 11.832 4.99 0.818 0.389 1.597 0.819 2.446 1.256 3.092 1.652 6.099 3.468 8.996 5.448 0.927 0.621 1.862 1.201 2.773 1.864 24.419 17.483 38.689 45.548 38.284 75.253v62.791c-0.016 8.332 3.357 16.318 9.363 22.183 1.597 1.556 3.349 2.95 5.234 4.147 0.335 0.199 0.701 0.345 1.036 0.529 1.565 0.943 3.201 1.748 4.899 2.406 0.498 0.184 1.005 0.299 1.503 0.453 1.558 0.521 3.155 0.912 4.783 1.18 0.763 0.122 1.597 0.153 2.344 0.238 1.34 0.122 2.687 0.169 4.035 0.138 1.005-0.046 2.010-0.145 2.999-0.299 1.199-0.138 2.391-0.352 3.56-0.644 0.397-0.092 0.763-0.238 1.145-0.345 13.904-4.99 23.087-18.074 22.908-32.638v-91.537c0-52.012 42.856-94.181 95.713-94.181 52.866 0 95.714 42.168 95.714 94.181v94.19c0 10.662 5.515 20.588 14.628 26.344 0.272 0.169 0.592 0.284 0.865 0.453 1.62 0.973 3.318 1.809 5.086 2.484 0.452 0.169 0.911 0.268 1.356 0.406 1.565 0.521 3.162 0.935 4.79 1.226 0.763 0.107 1.597 0.154 2.298 0.223 1.339 0.13 2.695 0.176 4.050 0.138 1.005-0.046 2.002-0.145 2.999-0.299 1.199-0.138 2.383-0.352 3.559-0.644 0.397-0.092 0.763-0.238 1.145-0.345 13.951-4.952 23.196-18.044 23.033-32.638v-28.743c0-52.015 42.856-94.183 95.714-94.183 52.868 0 95.712 42.168 95.712 94.183v31.395c-0.014 8.332 3.359 16.318 9.366 22.183 1.597 1.556 3.345 2.95 5.229 4.147 0.341 0.199 0.703 0.345 1.051 0.552 1.563 0.928 3.195 1.725 4.888 2.384 0.498 0.184 1.017 0.299 1.597 0.453 1.536 0.521 3.106 0.912 4.704 1.18 0.765 0.122 1.597 0.153 2.342 0.238 1.345 0.122 2.69 0.169 4.035 0.138 1.010-0.046 2.014-0.145 3.004-0.299 1.195-0.138 2.389-0.352 3.557-0.644 0.396-0.092 0.765-0.238 1.147-0.345 13.892-4.998 23.081-18.082 22.89-32.638v-60.139c-0.020-25.016 10.056-49.025 28.037-66.733 3.161-3.031 6.533-5.85 10.090-8.445 1.038-0.737 2.109-1.393 3.195-2.103 2.683-1.795 5.393-3.468 8.212-4.983 1.12-0.601 2.232-1.181 3.366-1.727 3.215-1.57 6.513-2.97 9.878-4.178 0.669-0.239 1.324-0.539 2.007-0.758 8.752-2.935 17.886-4.628 27.122-5.024h0.109c4.444-0.171 8.902-0.041 13.332 0.396l1.597 0.177c1.597 0.164 3.195 0.232 4.792 0.492v-158.276h-797.686zM545.428 719.346c44.033 0.054 79.715 35.167 79.761 78.489 0 37.68-55.498 118.66-66.629 134.504-3.139 4.009-7.984 6.362-13.132 6.362-5.141 0-9.994-2.353-13.125-6.362-11.138-15.843-66.636-96.823-66.636-134.504 0.055-43.322 35.737-78.435 79.761-78.489zM545.428 895.041c22.955-35.305 47.857-80.060 47.857-97.206 0-26.007-21.421-47.093-47.857-47.093-26.429 0-47.857 21.086-47.857 47.093 0 17.147 24.902 61.901 47.857 97.206zM816.626 687.93c44.032 0.053 79.715 35.166 79.763 78.488 0 37.681-55.501 118.661-66.628 134.504-3.14 4.009-7.987 6.362-13.135 6.362-5.14 0-9.994-2.353-13.121-6.362-11.141-15.843-66.642-96.823-66.642-134.504 0.055-43.322 35.738-78.435 79.763-78.488zM816.626 863.624c22.958-35.304 47.862-80.060 47.862-97.206 0-26.007-21.422-47.093-47.862-47.093-26.426 0-47.855 21.086-47.855 47.093 0 17.147 24.904 61.902 47.855 97.206zM274.295 687.93c44.033 0.053 79.715 35.166 79.761 78.488 0 37.681-55.498 118.661-66.629 134.504-3.139 4.009-7.984 6.362-13.132 6.362-5.141 0-9.994-2.353-13.125-6.362-11.138-15.843-66.636-96.823-66.636-134.504 0.055-43.322 35.737-78.435 79.761-78.488zM274.295 863.624c22.955-35.304 47.857-80.060 47.857-97.206 0-26.007-21.42-47.093-47.857-47.093-26.429 0-47.857 21.086-47.857 47.093 0 17.147 24.902 61.902 47.857 97.206z" />
<glyph unicode="&#xe929;" glyph-name="home-small" d="M893.5 533.556l-327.311 282.421c-30.652 27.052-76.628 27.052-107.279 0l-328.406-282.421c-25.178-22.723-35.030-57.35-22.989-89.812 12.041-31.38 42.693-51.94 76.628-51.94v-242.383c0-44.366 36.124-81.155 82.101-81.155h491.515c44.882 0 82.102 35.707 82.102 81.155v242.383c33.936 0 64.588 20.559 76.628 51.94s2.185 67.088-22.989 89.812zM593.555 148.339h-164.203v162.311c0 44.366 36.125 81.155 82.102 81.155s82.101-35.708 82.101-81.155v-162.311z" />
<glyph unicode="&#xe92a;" glyph-name="percent" d="M512.007 894.774c-257.963 0-468.114-210.151-468.114-468.114 0-257.96 210.151-468.114 468.114-468.114 257.96 0 468.114 210.154 468.114 468.114 0 257.963-209.042 468.114-468.114 468.114zM277.394 553.418c0 16.679 2.224 32.245 7.783 46.7s12.231 25.574 22.238 35.581c8.895 10.007 20.014 17.791 33.357 22.238 24.463 11.119 57.819 11.119 82.282 0 13.343-5.56 24.462-13.343 33.357-22.238 8.896-10.007 16.679-22.238 22.238-35.581s7.783-28.91 7.783-46.7c0-16.679-3.335-32.246-8.895-45.588s-13.343-25.574-23.35-34.469c-10.007-10.007-21.127-16.679-33.358-22.238s-25.574-7.783-40.029-7.783c-14.454 0-28.91 2.224-41.141 7.783s-23.35 13.343-33.357 22.238c-8.896 10.007-16.679 21.127-22.238 35.581-4.448 13.343-6.671 27.798-6.671 44.477zM406.376 227.628c-3.336-4.448-6.671-7.783-12.231-10.007-4.448-3.335-11.119-4.447-17.791-4.447h-72.275l314.671 412.518c3.335 3.336 6.671 6.671 11.119 10.007 5.56 3.336 12.231 5.56 20.014 5.56h71.163l-314.671-413.631zM743.285 252.090c-5.559-13.343-13.343-25.574-23.351-34.469-10.007-10.007-21.126-17.791-33.357-22.238-12.232-5.559-25.574-7.782-40.029-7.782s-28.91 2.224-41.141 7.782c-13.343 5.559-24.462 13.343-33.358 22.238-8.895 10.007-16.679 21.127-22.238 35.582-5.56 13.343-7.783 28.91-7.783 45.588s2.224 32.246 7.783 46.7c5.56 13.343 12.231 25.574 22.238 35.581 8.896 10.007 20.014 17.791 33.358 22.238 25.574 11.119 57.819 11.119 82.281 0 13.343-5.56 24.462-13.343 33.358-22.238 8.895-10.007 16.679-22.238 22.238-35.581s7.782-28.91 7.782-46.7c1.112-17.791-2.224-33.357-7.782-46.7zM647.663 345.492c-16.679 0-30.021-13.343-30.021-30.021v-33.357c0-16.679 13.343-30.022 30.021-30.022s30.021 13.343 30.021 30.022v33.357c0 16.679-13.343 30.021-30.021 30.021zM381.928 507.83c16.679 0 30.022 13.343 30.022 30.021v33.358c0 16.679-13.343 30.021-30.022 30.021s-30.021-13.343-30.021-30.021v-33.358c0-15.566 13.343-30.021 30.021-30.021z" />
<glyph unicode="&#xe92b;" glyph-name="info" horiz-adv-x="512" d="M83.45 110.563c3.164 13.974 7.891 32.508 14.22 55.543l85.277 311.5c0.925 3.616 1.686 7.233 2.363 10.849 0.678 3.597 1.028 6.988 1.028 10.152 0 18.493-5.856 30.001-17.569 34.542-11.732 4.5-33.144 7.439-64.256 8.795v36.577c26.014 1.807 63.783 5.527 113.305 11.178 49.544 5.631 84.621 10.5 105.231 14.548l59.18 11.528-107.675-394.824c-9.021-33.844-15.104-57.331-18.289-70.441-8.116-33.413-12.206-55.091-12.206-64.996 0-9.946 2.26-16.378 6.802-19.296 4.5-2.958 9.473-4.417 14.918-4.417 14.035 0 31.439 11.959 52.256 35.899 20.836 23.918 39.165 48.988 55.008 75.167l30.474-19.644c-45.207-66.353-79.812-111.046-103.791-134.081-39.331-37.933-81.353-56.9-126.108-56.9-25.316 0-48.043 7.768-68.14 23.384-20.117 15.556-30.166 39.373-30.166 71.448 0 11.261 2.712 29.097 8.137 53.489zM409.62 898.178c18.062-18.062 27.104-39.967 27.104-65.694s-9.042-47.755-27.104-66.023c-18.062-18.289-39.946-27.433-65.695-27.433-25.727 0-47.735 9.144-66.022 27.433-18.289 18.289-27.433 40.297-27.433 66.023s9.144 47.612 27.433 65.694c18.287 18.042 40.296 27.083 66.022 27.083s47.633-9.021 65.695-27.083z" />
<glyph unicode="&#xe93b;" glyph-name="info-compoes" horiz-adv-x="512"  d="M256,0C114.516,0,0,114.497,0,256c0,141.484,114.497,256,256,256c141.484,0,256-114.497,256-256     C512,114.516,397.503,0,256,0z M256,472c-119.377,0-216-96.607-216-216c0-119.377,96.607-216,216-216     c119.377,0,216,96.607,216,216C472,375.377,375.393,472,256,472z M256,128.5c-44.112,0-80,35.888-80,80c0,11.046,8.954,20,20,20s20-8.954,20-20c0-22.056,17.944-40,40-40     c22.056,0,40,17.944,40,40c0,22.056-17.944,40-40,40c-11.046,0-20,8.954-20,20v50c0,11.046,8.954,20,20,20     c11.046,0,20-8.954,20-20v-32.531c34.466-8.903,60-40.26,60-77.469C336,164.388,300.112,128.5,256,128.5z" />
</font>
</defs>
</svg>
