<?xml version="1.0" encoding="utf-8"?>
<!-- Generator: Adobe Illustrator 21.1.0, SVG Export Plug-In . SVG Version: 6.00 Build 0)  -->
<svg version="1.1" id="Capa_1" xmlns="http://www.w3.org/2000/svg" xmlns:xlink="http://www.w3.org/1999/xlink" x="0px" y="0px"
	 width="594px" height="134px" viewBox="0 0 594 134" style="enable-background:new 0 0 594 134;" xml:space="preserve">
<style type="text/css">
	.st0{fill:#515154;}
	.st1{fill:#04499A;}
</style>
<g>
	<path class="st0" d="M542.5,104.9c0,6.6,0,12.9,0,19.3c-9.4,1.7-14.8-1.3-15-10.4c-0.3-13.1-0.5-26.2,0.2-39.2
		c0.8-15.2,9.2-25.4,21.8-27.8c13.3-2.6,25.6,2.9,30.3,15.7c4.3,12,5.2,24.9-2.5,36.5C570.1,109.6,558.8,111.6,542.5,104.9z
		 M567.9,77.6c-0.2-1.3-0.2-4.3-0.9-7.2c-1.6-6.1-5.1-10.1-11.9-10.2c-6.9-0.1-10.5,3.8-11.9,10c-0.8,3.5-1.3,7.3-1,10.9
		c1,9.4,7.1,15.8,14.1,15.5C563.5,96.2,567.9,89.6,567.9,77.6z"/>
	<path class="st0" d="M485.1,76.7c-0.1,19.3-9.8,31.3-23.9,31.3c-20.4-0.1-31-10.6-30.8-30.4c0.2-17.6,9.8-29.8,24.6-31.4
		c15.3-1.6,26.8,6.6,30.4,21.4C486.3,71.3,485.6,74.7,485.1,76.7z M471.5,78.2c0-12.1-4.6-19-13-19.3c-8.2-0.3-13.4,6.6-13.5,17.7
		c-0.1,12,4.8,18.5,13.8,18.5C467.2,95,471.5,89.4,471.5,78.2z"/>
	<path class="st0" d="M198,107.3c-5.5,0-9.4,0-13.9,0c0-13.7-1-27.1,0.3-40.2c1.4-14.2,12.8-21.8,28.3-21
		c13.7,0.7,23.5,9.6,24.3,23.4c0.7,12.3,0.1,24.7,0.1,37c-4.8,1.7-9,1.5-14.2,0.2c0-10.6,0.2-21.3,0-31.9
		c-0.2-10.8-4.4-16.1-12.4-16.3c-8-0.2-12.2,5-12.4,16C197.8,85.2,198,95.9,198,107.3z"/>
	<path class="st0" d="M299.8,83.9c4.6,13,11.4,15.3,31.2,11.5c3.4,8.1-0.1,11.8-8,12.9c-13.1,1.9-25-0.5-33.1-11.9
		c-8.3-11.6-7.5-24.1-1.2-36.2c5.7-11,15.7-15,27.8-14.2c7.9,0.5,14.1,4.1,18.4,10.7c8.2,12.9,2.9,24.3-12.2,25.9
		C315.4,83.6,308.1,83.5,299.8,83.9z M306.4,76.1c9.6-0.2,18.6-4.5,18.3-9.1c-0.4-7.3-5.8-9.1-11.8-9.3c-7.1-0.2-13.9,6.7-13.5,13.1
		C299.7,75.9,302.8,76.6,306.4,76.1z"/>
	<path class="st0" d="M247.8,30.7c5,0,9,0,13,0c2.7,4.5-0.3,9.5,2,14.1c6.1,2.8,13.1-0.4,20,2.1c1.1,16.9-13.3,9-20.8,12.8
		c0,5.8,0,11.8,0,17.8c0,17.3,2.2,19.2,19.7,17.7c3.1,8.4-0.4,12.5-8.7,13.6c-13.9,1.7-24.5-6-25-19.7
		C247.3,70,247.8,50.9,247.8,30.7z"/>
	<path class="st0" d="M425.4,94.3c2.6,7.4-0.1,10.8-6.3,12.8c-12.8,4.1-27.2-0.1-35.1-10.6c-8-10.7-7.7-28.2,0.7-39.5
		c7.5-9.9,21.7-13.9,34.4-9.9c6.2,2,8.8,5.5,6.6,12.6c-10.7-1.4-22.7-5.4-29.3,8c-3.7,7.5-3,15.1,1.9,21.8
		C405.4,99.4,415.4,96.4,425.4,94.3z"/>
	<path class="st0" d="M523.5,57.4c-13.5,2.5-15.1,4.3-15.3,18c-0.1,10.3,0,20.6,0,30.9c-4.7,2.1-8.9,1.3-14.6,0.7
		c0.5-14.9-1.4-29.8,1.2-44.5c2.3-12.9,11-17.6,27.2-15.8C524.7,49.9,522.7,53.8,523.5,57.4z"/>
	<path class="st0" d="M172.1,106.7c-4.4,1.4-8.5,1.2-13.2,0.1c0-25,0-50,0-75.3c4.1-1.9,8.3-0.5,13.2-1.1
		C172.1,56.2,172.1,81.3,172.1,106.7z"/>
	<path class="st0" d="M345.8,107.1c0-14.3-0.5-27.6,0.1-40.9c0.8-15,10.7-21.6,27.7-19.3c2.9,3.1,0.9,6.9,1.6,10.2
		c-14.1,3.5-15.1,4.8-15.2,19.1c0,9.7-0.1,19.4-0.2,29.1c0,0.3-0.3,0.6-0.8,1.3C355.4,108.5,351.1,107.3,345.8,107.1z"/>
	<path class="st1" d="M125.5,13.8c-32.9,0-64.6-0.2-96.4,0.1c-9.5,0.1-14.3,6.2-14.3,16.9c-0.1,26.1-0.1,52.3,0,78.4
		c0,4.9-1.4,10,1.4,15.2c31.4,0,62.9,0.2,94.3-0.1c9.5-0.1,14.7-6.2,14.8-16.7C125.6,76.8,125.5,46,125.5,13.8z M38.3,100.6
		c-0.2-0.6-0.3-1.2-0.4-1.8C38,99.4,38.1,100,38.3,100.6z M47.8,102.7c-2.5,0-4.9-0.1-7.4-0.1c0.2-19.2,0.5-38.5,0.7-57.7
		c19.3-3.3,38.7-6.7,58-10c0.1,19.3,0.2,38.6,0.3,57.8c-16.3,3.2-32.6,6.3-49,9.5C49.5,102.4,48.6,102.6,47.8,102.7z M101.8,37.2
		c0.1,0.4,0.2,0.8,0.2,1.3C102.1,38,102,37.6,101.8,37.2z M122.5,64.6c0,13.4,0.1,26.9,0,40.3C122.6,91.5,122.5,78,122.5,64.6
		c0-13.4-0.2-26.9,0.1-40.3C122.3,37.7,122.5,51.2,122.5,64.6z"/>
</g>
</svg>
